<?xml version="1.0" encoding="UTF-8"?>
<svg version="1.1" xmlns="http://www.w3.org/2000/svg" width="3344" height="360">

<path d="M0 0 C0.68626465 0.23605957 1.3725293 0.47211914 2.07958984 0.71533203 C20.2846495 7.12533147 34.51637909 17.34591612 48 31 C48.76828125 31.75796875 49.5365625 32.5159375 50.328125 33.296875 C71.08767403 55.06908496 80.73062585 84.37133146 80.46899414 113.94189453 C79.74649586 140.54109109 70.25915709 164.67484494 53 185 C52.19949219 185.94617188 51.39898438 186.89234375 50.57421875 187.8671875 C32.88803239 208.23210914 7.87949659 221.70655431 -19 225 C-23.31753754 225.25708096 -27.61339046 225.28057709 -31.9375 225.25 C-33.02740234 225.25773438 -34.11730469 225.26546875 -35.24023438 225.2734375 C-45.80066447 225.24833844 -55.81080476 223.78838666 -65.8125 220.375 C-66.95452881 219.9869519 -66.95452881 219.9869519 -68.11962891 219.59106445 C-95.74234241 209.82275738 -118.90165807 188.08503976 -132.05761719 161.99853516 C-144.83820263 134.89442313 -147.75508001 102.99313558 -138.10449219 74.34130859 C-131.30415137 55.71267962 -121.07265845 39.89748013 -107 26 C-106.26394531 25.26523438 -105.52789062 24.53046875 -104.76953125 23.7734375 C-93.9020609 13.5380339 -80.96438538 6.09040139 -67 1 C-66.32114746 0.7431543 -65.64229492 0.48630859 -64.94287109 0.22167969 C-45.24209373 -6.95815917 -19.7635496 -6.91621622 0 0 Z " fill="#FB4D01" transform="translate(489,47)"/>
<path d="M0 0 C1.16007568 0.00354492 2.32015137 0.00708984 3.51538086 0.01074219 C22.44045931 0.36789239 41.82716266 4.49101774 56.0625 17.5 C56.701875 18.08394531 57.34125 18.66789062 58 19.26953125 C71.23722744 32.8317799 72.38220496 50.96444562 72.36328125 68.859375 C72.36718204 70.41815298 72.37151947 71.97692993 72.37626648 73.53570557 C72.3836785 76.78653422 72.38347484 80.03725418 72.37817383 83.28808594 C72.3723949 87.40714647 72.38929658 91.52575504 72.4125185 95.64474106 C72.42741681 98.86056011 72.42810582 102.07627442 72.42500877 105.29212189 C72.42551425 106.80842226 72.4306022 108.32472976 72.44082069 109.84099579 C72.55552353 129.24075185 69.7736066 147.71953808 55.62109375 162.25390625 C43.42184205 172.96317301 28.20555213 178.24832658 12.0625 178.5 C11.27069336 178.51901367 10.47888672 178.53802734 9.66308594 178.55761719 C-13.60472079 179.0765701 -35.04900734 177.86126824 -53.25390625 161.40625 C-67.85143181 146.1162422 -69.08534515 126.63336013 -69.140625 106.6484375 C-69.14345238 105.94942951 -69.14627975 105.25042152 -69.14919281 104.53023148 C-69.16408811 100.82890715 -69.17337776 97.1276208 -69.17773438 93.42626953 C-69.18319752 89.65467841 -69.2072077 85.88345214 -69.23570633 82.11197472 C-69.25456627 79.165528 -69.25955057 76.21916502 -69.26107025 73.27266312 C-69.26404622 71.88474159 -69.27189697 70.49681963 -69.28525543 69.1089592 C-69.39999583 56.26997106 -68.51874829 42.49580547 -62.25 31 C-61.7245459 30.00323242 -61.7245459 30.00323242 -61.18847656 28.98632812 C-54.96872628 17.66048026 -44.17900697 9.41877983 -32 5.1875 C-21.26351151 2.12336403 -11.21074698 -0.06283773 0 0 Z " fill="#010101" transform="translate(1888.9375,95.5)"/>
<path d="M0 0 C1.24773193 0.00161133 2.49546387 0.00322266 3.78100586 0.00488281 C13.60278554 0.13464404 22.30716133 1.35581205 31.625 4.375 C32.66527344 4.68695313 33.70554687 4.99890625 34.77734375 5.3203125 C47.52932049 9.4835093 58.72062767 18.21398652 65 30.1875 C69.67808068 40.45807374 72.70779545 50.91698277 72.80200195 62.22802734 C72.80857315 62.88595276 72.81514435 63.54387817 72.82191467 64.22174072 C72.84151104 66.38480787 72.85328571 68.5478057 72.86328125 70.7109375 C72.86735678 71.45774403 72.8714323 72.20455055 72.87563133 72.97398758 C72.89644403 76.93464117 72.91076082 80.89526072 72.92016602 84.85595703 C72.93116094 88.90128064 72.96549321 92.94604363 73.00533772 96.99117088 C73.03178314 100.14007421 73.03988269 103.28885023 73.04344749 106.43785477 C73.04824965 107.92627328 73.05967558 109.41468867 73.07848549 110.90299606 C73.2349685 124.11611521 71.77693415 137.90681085 64.625 149.375 C64.20605469 150.09816406 63.78710938 150.82132813 63.35546875 151.56640625 C54.46606998 166.03922904 40.61344195 172.94052945 24.66137695 176.92163086 C2.96951881 181.75100151 -23.40879159 180.17936473 -43.08203125 169.5390625 C-56.58943778 160.66230898 -63.18941486 148.90085123 -66.83203125 133.2265625 C-67.89862466 127.62502876 -68.50261449 122.20431633 -68.53613281 116.50024414 C-68.54109772 115.85192627 -68.54606262 115.2036084 -68.55117798 114.53564453 C-68.56566734 112.41047053 -68.57258244 110.28537136 -68.578125 108.16015625 C-68.58095238 107.42529936 -68.58377975 106.69044247 -68.58669281 105.93331718 C-68.60163838 102.03749108 -68.61089471 98.14170151 -68.61523438 94.24584961 C-68.62068511 90.26903607 -68.64465381 86.29257077 -68.67320633 82.31586552 C-68.69205888 79.21757615 -68.69705033 76.11936651 -68.69857025 73.0210247 C-68.70155114 71.55774488 -68.70941985 70.09446484 -68.72275543 68.63124275 C-68.87113352 51.08607444 -66.90084689 33.26524162 -54.46191406 19.79418945 C-45.69527731 10.90366966 -35.31504127 5.02911897 -23 2.90234375 C-20.28153168 2.41812834 -20.28153168 2.41812834 -17.3984375 1.33984375 C-11.74863702 -0.30280601 -5.83336137 -0.00777005 0 0 Z " fill="#FA5503" transform="translate(2677.375,95.625)"/>
<path d="M0 0 C1.27093506 0.00612305 2.54187012 0.01224609 3.85131836 0.01855469 C13.42290443 0.17758161 21.64219556 1.3265119 30.6875 4.4375 C31.81285156 4.77265625 32.93820313 5.1078125 34.09765625 5.453125 C47.23170427 9.47472901 58.4052424 18.7265921 65.6875 30.4375 C69.66230155 38.61423461 71.82942795 45.40230092 71.88037109 54.47216797 C71.89263733 55.68289223 71.89263733 55.68289223 71.90515137 56.91807556 C71.92995137 59.58860551 71.94651499 62.25908216 71.9609375 64.9296875 C71.96626118 65.8463129 71.97158485 66.76293831 71.97706985 67.70734024 C72.00378862 72.56692924 72.02316044 77.42649278 72.03759766 82.28613281 C72.0508872 86.28604249 72.07864901 90.285436 72.11962891 94.28515625 C72.16929159 99.13334532 72.1937605 103.9810696 72.20082474 108.82950211 C72.20748577 110.66568198 72.22257114 112.5018536 72.24671555 114.33788681 C72.46332479 131.81867196 68.78849072 147.78127751 56.5625 161.1875 C40.89611871 175.49006684 20.87765875 178.85069195 0.375 178.75 C-0.79981934 178.74581055 -1.97463867 178.74162109 -3.18505859 178.73730469 C-15.48830055 178.57802845 -27.34253162 177.45642071 -38.3125 171.4375 C-39.27800781 170.95539063 -40.24351562 170.47328125 -41.23828125 169.9765625 C-53.12165162 163.67230873 -61.11284157 153.18645928 -65.3125 140.390625 C-68.2171836 129.38634291 -68.48541863 118.56486089 -68.515625 107.24609375 C-68.51845238 106.52410357 -68.52127975 105.80211338 -68.52419281 105.05824471 C-68.53910698 101.23373181 -68.54838423 97.40925584 -68.55273438 93.5847168 C-68.55819376 89.68418659 -68.58219037 85.78400986 -68.61070633 81.88358974 C-68.62955906 78.8402058 -68.63455025 75.79690299 -68.63607025 72.75346565 C-68.6390489 71.31809632 -68.64690944 69.88272668 -68.66025543 68.44741631 C-68.82131835 49.78776563 -66.18676117 32.71170938 -52.7890625 18.75390625 C-37.85855902 4.78894006 -20.13703856 -0.16612286 0 0 Z " fill="#FA5604" transform="translate(2869.3125,95.5625)"/>
<path d="M0 0 C12.2670685 10.58764841 19.25714464 23.64004518 21.125 39.828125 C21.58952302 47.77650681 21.41007489 55.74616867 21.3125 63.703125 C21.29742036 65.85545935 21.28373778 68.00780396 21.27148438 70.16015625 C21.23875182 75.38304003 21.18881485 80.60553326 21.125 85.828125 C11.10426065 86.00063695 1.0834289 86.16703787 -8.9375 86.328125 C-9.67613659 86.34000225 -10.41477318 86.3518795 -11.17579269 86.36411667 C-35.07673822 86.74651058 -58.97063831 86.9769691 -82.875 86.828125 C-82.7935562 91.16219487 -82.68075957 95.49491572 -82.5625 99.828125 C-82.52866211 101.65923828 -82.52866211 101.65923828 -82.49414062 103.52734375 C-82.2672087 111.16050866 -82.04182067 117.76172248 -77.18359375 124 C-76.56613281 124.52078125 -75.94867187 125.0415625 -75.3125 125.578125 C-74.71308594 126.10921875 -74.11367187 126.6403125 -73.49609375 127.1875 C-65.14654625 132.41374434 -57.55087024 133.46314573 -47.8125 133.328125 C-46.69294922 133.34359375 -45.57339844 133.3590625 -44.41992188 133.375 C-35.72491082 133.33420229 -29.79386385 131.46582182 -22.625 126.640625 C-18.99373906 123.17430491 -18.99373906 123.17430491 -14.875 114.828125 C-3.325 114.828125 8.225 114.828125 20.125 114.828125 C20.125 126.71964245 15.20043161 139.4408115 6.92578125 148.25 C-11.70150618 164.57413041 -36.14917482 167.1120012 -59.875 165.828125 C-76.56732246 164.60549304 -93.09367013 159.55112344 -104.75 146.953125 C-117.661894 130.83681935 -120.18964372 113.44451572 -120.2109375 93.28125 C-120.2173915 91.81597779 -120.22412161 90.35070677 -120.23110962 88.88543701 C-120.24298741 85.83309957 -120.24680033 82.78087449 -120.24560547 79.72851562 C-120.24544301 76.6351786 -120.25933138 73.54243436 -120.28662109 70.44921875 C-120.70315293 22.50061714 -120.70315293 22.50061714 -103.671875 4.52734375 C-78.05630602 -19.69607474 -28.06302102 -21.19978219 0 0 Z " fill="#020202" transform="translate(1346.875,109.171875)"/>
<path d="M0 0 C5.09031755 -0.04936158 10.18049643 -0.08570105 15.27099609 -0.10986328 C17.00344265 -0.11993376 18.73587216 -0.13359089 20.46826172 -0.15087891 C22.95544639 -0.17508162 25.44240675 -0.18647239 27.9296875 -0.1953125 C28.70682098 -0.20563507 29.48395447 -0.21595764 30.28463745 -0.22659302 C32.19125493 -0.22699271 34.09731036 -0.1223214 36 0 C38.82957375 2.82957375 39.10070817 5.86317601 40.0234375 9.6875 C40.80476033 12.33774705 41.68936646 14.70412546 42.7578125 17.23828125 C45.6130002 24.24075672 47.65630153 31.48955287 49.78173828 38.73852539 C50.49382481 41.16644515 51.21307212 43.59214985 51.93359375 46.01757812 C54.10578705 53.35854803 56.21695939 60.70714001 58.15625 68.11328125 C59.3730468 72.74094153 60.68444739 77.284096 62.24951172 81.8046875 C63.79791977 86.33405808 65.16402274 90.92261851 66.5625 95.5 C66.86607422 96.48097656 67.16964844 97.46195312 67.48242188 98.47265625 C69.06653042 103.65638399 70.4600214 108.81255812 71.58178711 114.11523438 C72.35655868 117.60690778 73.59244193 120.71569784 75 124 C75.66 124.33 76.32 124.66 77 125 C77.23074219 124.030625 77.46148438 123.06125 77.69921875 122.0625 C79.34499007 115.25780252 81.08981555 108.53861984 83.25 101.875 C85.78706479 94.03610735 87.89432132 86.08875503 90 78.125 C90.35326322 76.79166448 90.70653468 75.45833114 91.05981445 74.125 C92.27657637 69.52865175 93.49090466 64.93166126 94.70263672 60.33398438 C97.97886477 47.96826946 101.8886011 35.8240104 105.84375 23.66015625 C108.00908725 16.99910355 110.08711159 10.31425458 112.125 3.61328125 C113 1 113 1 114 0 C116.6662603 -0.08855161 119.30647114 -0.11524673 121.97265625 -0.09765625 C122.77029892 -0.0962413 123.56794159 -0.09482635 124.38975525 -0.09336853 C126.94737435 -0.08775316 129.50490718 -0.07519812 132.0625 -0.0625 C133.79231645 -0.05748698 135.52213426 -0.05292373 137.25195312 -0.04882812 C141.50133553 -0.03777875 145.75065312 -0.02050386 150 0 C148.55140918 7.08853577 146.55448327 13.87465604 144.3125 20.75 C143.9616333 21.83603516 143.6107666 22.92207031 143.24926758 24.04101562 C140.39668959 32.84582327 137.4877319 41.63187524 134.54296875 50.40625 C134.28354492 51.17928467 134.02412109 51.95231934 133.75683594 52.7487793 C133.27202439 54.19085905 132.78582444 55.63247324 132.29785156 57.07348633 C130.12170215 63.53514931 128.08342786 70.03955525 126.04598999 76.54595947 C125.34941272 78.7691647 124.65109377 80.99181688 123.95239258 83.21435547 C121.30143005 91.64963159 118.65990878 100.0877742 116.02983093 108.52958679 C109.00954194 131.05212692 101.95181134 153.55335747 94.3125 175.875 C94.03240082 176.69478333 93.75230164 177.51456665 93.4637146 178.35919189 C90.66527466 186.52988465 87.79094024 194.6691677 84.7734375 202.76171875 C84.5340596 203.40555511 84.2946817 204.04939148 84.04804993 204.71273804 C79.09880203 217.84836294 72.76857686 226.24863213 60.05078125 232.734375 C50.58274053 236.54001274 40.34267541 235.5635947 30.3125 235.375 C28.25587597 235.35846531 26.19923307 235.34412441 24.14257812 235.33203125 C9.19655513 235.19655513 9.19655513 235.19655513 8 234 C7.98306402 231.62192202 8.02869862 229.27689337 8.12109375 226.90234375 C8.14470474 226.19348526 8.16831573 225.48462677 8.19264221 224.75428772 C8.26944646 222.48182979 8.35339775 220.20969843 8.4375 217.9375 C8.49070396 216.40040681 8.54344446 214.8632975 8.59570312 213.32617188 C8.72508405 209.55057297 8.8608769 205.77525197 9 202 C9.66942627 201.98018066 10.33885254 201.96036133 11.02856445 201.93994141 C14.12353971 201.84344834 17.21795099 201.73428366 20.3125 201.625 C21.8912793 201.57859375 21.8912793 201.57859375 23.50195312 201.53125 C35.93422132 201.22065568 35.93422132 201.22065568 47.375 197 C52.91612634 190.66728419 57.66124565 181.35514606 57.4375 172.796875 C56.6659474 167.86444945 54.6694131 163.36112423 52.8359375 158.74609375 C50.72610189 153.39851582 48.92346646 147.95873496 47.125 142.5 C46.78718506 141.4788208 46.44937012 140.4576416 46.10131836 139.40551758 C45.40914757 137.31071714 44.71799178 135.21558105 44.02783203 133.12011719 C37.11625094 112.13911806 29.95486021 91.25114173 22.6328125 70.41015625 C11.67531687 39.21241859 11.67531687 39.21241859 6.8125 24.625 C6.46251953 23.57578369 6.11253906 22.52656738 5.75195312 21.44555664 C4.2137654 16.79697292 2.70924365 12.13859521 1.26171875 7.4609375 C0.89566528 6.27830322 0.89566528 6.27830322 0.5222168 5.07177734 C0 3 0 3 0 0 Z " fill="#010101" transform="translate(2199,100)"/>
<path d="M0 0 C1.18963246 0.84351095 2.35788761 1.71818392 3.5 2.625 C4.0775 3.05683594 4.655 3.48867187 5.25 3.93359375 C15.42336629 12.6763304 19.93271278 27.30735377 21.02685547 40.18823242 C21.84965996 52.10160765 21.64353899 64.05297932 21.6328125 75.98828125 C21.6334869 78.63388628 21.63445665 81.27948992 21.63571167 83.9250946 C21.6375195 89.43957021 21.63516022 94.95403231 21.63037109 100.46850586 C21.62489591 106.84671098 21.62672009 113.22488429 21.6321975 119.60308868 C21.63727063 125.75726452 21.63674998 131.9114262 21.63381577 138.06560326 C21.6331471 140.68002515 21.63397282 143.29444785 21.63629532 145.90886879 C21.6388182 149.54253977 21.6349881 153.17614817 21.62939453 156.80981445 C21.63141876 157.89696243 21.63344299 158.98411041 21.63552856 160.10420227 C21.63270874 161.08662903 21.62988892 162.06905579 21.62698364 163.08125305 C21.6264181 164.36891555 21.6264181 164.36891555 21.62584114 165.68259144 C21.5 167.625 21.5 167.625 20.5 168.625 C17.91810554 168.72591475 15.363535 168.76471499 12.78125 168.7578125 C11.62163757 168.75924759 11.62163757 168.75924759 10.43859863 168.76071167 C8.80102456 168.76139341 7.16344781 168.75953957 5.52587891 168.75537109 C3.01068079 168.75002271 0.49566127 168.75531626 -2.01953125 168.76171875 C-3.60677123 168.76105797 -5.1940111 168.7597768 -6.78125 168.7578125 C-7.53853394 168.75983673 -8.29581787 168.76186096 -9.0760498 168.76394653 C-14.38504868 168.73995132 -14.38504868 168.73995132 -15.5 167.625 C-15.60142756 166.10412931 -15.63351973 164.57857894 -15.63803101 163.05433655 C-15.64348434 162.06612915 -15.64893768 161.07792175 -15.65455627 160.05976868 C-15.6555986 158.96633652 -15.65664093 157.87290436 -15.65771484 156.74633789 C-15.66279556 155.6015799 -15.66787628 154.4568219 -15.67311096 153.27737427 C-15.68384434 150.78045998 -15.69245277 148.2835359 -15.69923019 145.78660774 C-15.71098716 141.83094842 -15.73043454 137.87539986 -15.75234985 133.91978455 C-15.81427745 122.66881275 -15.8681559 111.41784385 -15.90136719 100.16674805 C-15.91977563 93.95779548 -15.94879695 87.74898458 -15.9893719 81.54013628 C-16.01035409 78.25672594 -16.02419484 74.97353106 -16.02817917 71.69005013 C-16.03310672 68.01589524 -16.05631623 64.34226132 -16.08349609 60.66821289 C-16.08048996 59.59299881 -16.07748383 58.51778473 -16.0743866 57.4099884 C-16.1879399 47.03442282 -18.1361902 37.9888098 -25.6875 30.4375 C-32.67433757 25.93487134 -40.27056598 24.43200822 -48.5 25.625 C-55.8468303 27.89109698 -63.8971952 30.89567914 -67.6875 38.0625 C-70.11639083 42.83652681 -71.74513509 46.46269568 -71.7784729 51.85786438 C-71.78963638 52.8912645 -71.80079987 53.92466461 -71.81230164 54.98937988 C-71.81446182 56.1121936 -71.81662201 57.23500732 -71.81884766 58.3918457 C-71.83391609 60.17784431 -71.83391609 60.17784431 -71.84928894 61.99992371 C-71.87484672 65.25573039 -71.89172269 68.5114423 -71.90471697 71.76731896 C-71.92037048 75.17331391 -71.9471536 78.57922106 -71.9727478 81.9851532 C-72.01949636 88.43065965 -72.05625939 94.87618269 -72.08942068 101.3217718 C-72.12766984 108.66158474 -72.17707266 116.00130941 -72.22740483 123.34104788 C-72.33066629 138.43563331 -72.41994545 153.53027232 -72.5 168.625 C-77.44791294 168.6496826 -82.3957902 168.66785166 -87.34375 168.67993164 C-89.02767562 168.68496653 -90.71159686 168.69179481 -92.39550781 168.70043945 C-94.81316203 168.71254196 -97.23075856 168.71823668 -99.6484375 168.72265625 C-100.4036972 168.72781754 -101.15895691 168.73297882 -101.93710327 168.73829651 C-107.27225659 168.73887171 -107.27225659 168.73887171 -109.5 167.625 C-109.5 111.195 -109.5 54.765 -109.5 -3.375 C-97.62 -3.375 -85.74 -3.375 -73.5 -3.375 C-73.005 6.03 -73.005 6.03 -72.5 15.625 C-68.24522584 14.56130646 -67.8047532 14.21204408 -65.25 11 C-48.37581518 -8.98446888 -22.59818281 -13.0808712 0 0 Z " fill="#010102" transform="translate(957.5,103.375)"/>
<path d="M0 0 C2.30176618 0.02151412 4.60042472 0.00002335 6.90209961 -0.02539062 C16.97696692 -0.04299076 25.62855473 1.46830148 35.23608398 4.52148438 C36.84016834 4.98010568 38.44431271 5.43851734 40.04858398 5.89648438 C48.93008094 9.02424319 55.64806038 13.98980038 61.23608398 21.52148438 C61.70916992 22.14925781 62.18225586 22.77703125 62.66967773 23.42382812 C67.76497767 30.81730489 69.58069117 39.67368144 70.23608398 48.52148438 C69.23608398 49.52148438 69.23608398 49.52148438 66.09326172 49.63500977 C64.70205701 49.6348507 63.31084638 49.62915944 61.91967773 49.61914062 C60.82309593 49.6170182 60.82309593 49.6170182 59.70436096 49.61485291 C57.36072766 49.60923846 55.01718859 49.59668359 52.67358398 49.58398438 C51.0882989 49.57897123 49.50301233 49.574408 47.91772461 49.5703125 C44.02380788 49.55926434 40.12996193 49.54199009 36.23608398 49.52148438 C35.9741626 48.90515137 35.71224121 48.28881836 35.44238281 47.65380859 C35.09199951 46.84443848 34.74161621 46.03506836 34.38061523 45.20117188 C33.86398315 43.99823486 33.86398315 43.99823486 33.33691406 42.77099609 C31.14932354 38.30072351 28.25441421 36.05947015 23.92358398 33.77148438 C10.79946308 29.32262983 -7.31287244 30.08474126 -20.20141602 34.77148438 C-24.29578421 37.56763826 -27.16879433 40.73611932 -28.76391602 45.52148438 C-29.07853764 51.91879074 -28.58930278 56.57278267 -25.13891602 62.14648438 C-19.61039496 67.67500543 -12.50417897 69.34124095 -5.01391602 70.70898438 C-4.1306665 70.87914062 -3.24741699 71.04929687 -2.33740234 71.22460938 C2.29347014 72.08719374 6.8401716 72.74602624 11.54858398 73.02148438 C18.70681278 73.4632264 25.39070577 75.4946499 32.23608398 77.52148438 C32.92347656 77.71790527 33.61086914 77.91432617 34.3190918 78.11669922 C48.24959769 82.10006394 60.63354525 86.74174197 68.32202148 99.93554688 C71.53803334 105.85969504 74.25939308 111.65695485 74.23608398 118.52148438 C74.29538086 119.70355469 74.35467773 120.885625 74.41577148 122.10351562 C74.77759833 131.25795668 73.68450128 138.92312808 70.23608398 147.52148438 C69.88545898 148.41609375 69.53483398 149.31070313 69.17358398 150.23242188 C63.47672366 163.08991914 52.76708226 169.41061742 40.23608398 174.52148438 C29.30244315 178.45231555 18.05436473 178.84899058 6.55297852 178.78222656 C4.37023944 178.77152924 2.18832921 178.78217753 0.00561523 178.79492188 C-19.637257 178.8163487 -38.8246646 176.69960336 -53.75610352 162.64648438 C-63.6185403 152.14912677 -66.14352937 140.54608895 -65.76391602 126.52148438 C-54.74502062 125.81465947 -43.80703787 125.37489426 -32.76391602 125.52148438 C-32.55766602 126.82085937 -32.35141602 128.12023437 -32.13891602 129.45898438 C-30.859243 134.97811832 -28.83680162 139.50494303 -24.76391602 143.52148438 C-15.18252236 148.62125842 -5.17645026 148.75491898 5.42358398 148.83398438 C6.70040039 148.86298828 7.9772168 148.89199219 9.29272461 148.921875 C17.91759612 148.97952196 25.83347626 148.49680261 32.48999023 142.48632812 C32.92182617 141.81730469 33.35366211 141.14828125 33.79858398 140.45898438 C34.25362305 139.78738281 34.70866211 139.11578125 35.17749023 138.42382812 C38.11868944 133.13835207 37.64939483 127.39361774 37.23608398 121.52148438 C35.51242476 116.04633156 32.17667603 112.34582934 27.23608398 109.52148438 C12.01740469 103.91988606 -5.38884617 102.58595746 -21.36108398 100.12060547 C-33.19682938 98.28891452 -46.83434037 94.15896862 -54.76391602 84.52148438 C-62.29264509 73.70861834 -64.11740179 64.61438454 -64.07641602 51.64648438 C-64.0925293 50.63457031 -64.10864258 49.62265625 -64.12524414 48.58007812 C-64.13272404 36.89647759 -61.59127663 27.36297382 -53.76391602 18.52148438 C-38.93023757 4.07937819 -20.1123825 -0.22268581 0 0 Z " fill="#FB5704" transform="translate(3236.763916015625,95.478515625)"/>
<path d="M0 0 C9.931061 8.02051403 14.50435291 19.92694485 16.21629333 32.31871033 C16.84652462 38.26860955 16.80776045 44.20065051 16.78930664 50.17797852 C16.78945267 51.42774979 16.78959869 52.67752106 16.78974915 53.96516418 C16.78917504 57.36537352 16.78418656 60.76552089 16.77717519 64.16571927 C16.77089102 67.72912488 16.77033386 71.29253147 16.76914978 74.85594177 C16.76605132 81.59176688 16.75785809 88.32757561 16.74780029 95.06339353 C16.73659286 102.73697271 16.73111707 110.4105527 16.72610486 118.08413804 C16.71567412 133.85818482 16.69810364 149.63221529 16.67578125 165.40625 C11.72787948 165.4556151 6.78012042 165.49195269 1.83203125 165.51611328 C0.14808659 165.52618317 -1.53584054 165.53983988 -3.21972656 165.55712891 C-5.63741376 165.58133426 -8.05487018 165.59272296 -10.47265625 165.6015625 C-11.22791595 165.61188507 -11.98317566 165.62220764 -12.76132202 165.63284302 C-14.61715855 165.63324318 -16.47241155 165.52847716 -18.32421875 165.40625 C-20.32421875 163.40625 -20.32421875 163.40625 -20.56472778 161.44732189 C-20.56028656 160.64012361 -20.55584534 159.83292532 -20.55126953 159.00126648 C-20.55105804 157.61174522 -20.55105804 157.61174522 -20.55084229 156.19415283 C-20.53534332 154.66464996 -20.53534332 154.66464996 -20.51953125 153.10424805 C-20.51661072 152.0324379 -20.51369019 150.96062775 -20.51068115 149.8563385 C-20.5030526 147.52093871 -20.4908022 145.18555062 -20.47454834 142.85019493 C-20.44906554 139.14569671 -20.43599909 135.44134153 -20.42626953 131.73677063 C-20.39948897 122.52485944 -20.35134747 113.31307626 -20.3034668 104.10125732 C-20.26385846 96.33623311 -20.23262227 88.57126137 -20.21234131 80.80616188 C-20.19945469 77.17200488 -20.17442603 73.53806352 -20.14892578 69.90397644 C-19.22525497 47.7675478 -19.22525497 47.7675478 -28.32421875 28.40625 C-34.77229502 22.98790454 -42.38142087 22.5721256 -50.47265625 22.984375 C-58.38151752 23.85066001 -64.77334073 26.59719161 -70.32421875 32.40625 C-74.50079617 38.63706795 -76.42678889 43.9968105 -76.48243713 51.52522278 C-76.49712036 53.03745926 -76.49712036 53.03745926 -76.51210022 54.58024597 C-76.51785568 55.67500748 -76.52361115 56.76976898 -76.52954102 57.89770508 C-76.53944061 59.05911011 -76.54934021 60.22051514 -76.55953979 61.41711426 C-76.59110976 65.2533159 -76.61589455 69.08952992 -76.640625 72.92578125 C-76.66119841 75.58664877 -76.68214784 78.24751066 -76.70359802 80.90837097 C-76.75344809 87.19451404 -76.79841532 93.48068214 -76.84162039 99.76687402 C-76.89105858 106.92528725 -76.94595223 114.08365542 -77.00129998 121.24202502 C-77.11500198 135.96339058 -77.22186653 150.68480105 -77.32421875 165.40625 C-82.43285771 165.4309001 -87.54146234 165.44908607 -92.65014648 165.46118164 C-94.38941043 165.46622204 -96.12867011 165.4730543 -97.86791992 165.48168945 C-100.36247812 165.49376792 -102.85698048 165.49948108 -105.3515625 165.50390625 C-106.13385727 165.50906754 -106.91615204 165.51422882 -107.72215271 165.51954651 C-109.58988989 165.51974226 -111.45751079 165.46824694 -113.32421875 165.40625 C-114.32421875 164.40625 -114.32421875 164.40625 -114.43164921 161.6126318 C-114.42335307 160.35254079 -114.41505693 159.09244978 -114.4065094 157.79417419 C-114.40328027 157.09503232 -114.40005114 156.39589044 -114.39672416 155.67556244 C-114.38458901 153.31547418 -114.36522895 150.95549891 -114.34594727 148.59545898 C-114.33581082 146.91060638 -114.32611647 145.22575107 -114.3168335 143.54089355 C-114.29028887 138.952219 -114.25752254 134.36360704 -114.2236836 129.77498126 C-114.18940333 124.98502462 -114.16078329 120.19503434 -114.13157654 115.40504456 C-114.07536216 106.32793607 -114.01401802 97.25086971 -113.9508552 88.1738072 C-113.87921396 77.84268731 -113.81325438 67.51153363 -113.74778473 57.18037307 C-113.61294207 35.92228816 -113.47092306 14.66425614 -113.32421875 -6.59375 C-108.35799526 -6.61840098 -103.39180709 -6.63658649 -98.42553711 -6.64868164 C-96.73477559 -6.6537219 -95.04401846 -6.66055405 -93.35327148 -6.66918945 C-90.92821168 -6.68126857 -88.50320931 -6.68698123 -86.078125 -6.69140625 C-84.93749352 -6.69914818 -84.93749352 -6.69914818 -83.77381897 -6.70704651 C-81.95689305 -6.70724238 -80.14008748 -6.65572277 -78.32421875 -6.59375 C-77.32421875 -5.59375 -77.32421875 -5.59375 -77.21069336 -3.73608398 C-77.21593018 -2.94532471 -77.22116699 -2.15456543 -77.2265625 -1.33984375 C-77.22978516 -0.48583984 -77.23300781 0.36816406 -77.23632812 1.24804688 C-77.24889648 2.59479492 -77.24889648 2.59479492 -77.26171875 3.96875 C-77.26623047 4.87044922 -77.27074219 5.77214844 -77.27539062 6.70117188 C-77.2872165 8.93626314 -77.30369655 11.17122437 -77.32421875 13.40625 C-74.17217362 10.99397056 -71.54166836 8.63425481 -69.07421875 5.53125 C-51.15117676 -15.24406104 -21.41921766 -14.68746354 0 0 Z " fill="#010101" transform="translate(1545.32421875,106.59375)"/>
<path d="M0 0 C4.94790177 -0.0493651 9.89566083 -0.08570269 14.84375 -0.10986328 C16.52769466 -0.11993317 18.21162179 -0.13358988 19.89550781 -0.15087891 C22.31319501 -0.17508426 24.73065143 -0.18647296 27.1484375 -0.1953125 C27.9036972 -0.20563507 28.65895691 -0.21595764 29.43710327 -0.22659302 C31.2929398 -0.22699318 33.1481928 -0.12222716 35 0 C37 2 37 2 37.24050903 3.98684692 C37.23606781 4.79959076 37.23162659 5.61233459 37.22705078 6.44970703 C37.22689972 7.37051056 37.22674866 8.29131409 37.22659302 9.24002075 C37.21627045 10.23589203 37.20594788 11.23176331 37.1953125 12.2578125 C37.1924826 13.27600067 37.18965271 14.29418884 37.18673706 15.3432312 C37.1755177 18.603939 37.15040996 21.86437484 37.125 25.125 C37.11497247 27.33202729 37.10584623 29.53905888 37.09765625 31.74609375 C37.07557268 37.16415572 37.04207795 42.58205843 37 48 C37.65066437 47.99777939 38.30132874 47.99555878 38.97171021 47.99327087 C45.75261892 47.97112264 52.53351733 47.95605355 59.31445312 47.94506836 C61.84407977 47.94004411 64.37370351 47.93322362 66.90332031 47.92456055 C70.54232499 47.91241147 74.18129122 47.90675254 77.8203125 47.90234375 C78.94865509 47.89718246 80.07699768 47.89202118 81.23953247 47.88670349 C82.30017914 47.88662796 83.36082581 47.88655243 84.45361328 47.88647461 C85.38182892 47.884254 86.31004456 47.88203339 87.26638794 47.87974548 C90 48 90 48 96 49 C96 59.89 96 70.78 96 82 C76.53 82 57.06 82 37 82 C37.09081064 97.82533214 37.09081064 97.82533214 37.20898438 113.65039062 C37.263269 120.1068297 37.31438076 126.56318269 37.34643555 133.01977539 C37.37248622 138.22649963 37.41290149 143.43293408 37.46318626 148.63947868 C37.47984298 150.62370124 37.49136469 152.60797391 37.49761391 154.59225655 C37.50726789 157.3763463 37.53534293 160.15969667 37.56762695 162.94360352 C37.56619186 163.76000305 37.56475677 164.57640259 37.5632782 165.4175415 C37.66083275 171.38447159 38.65629942 176.3260507 42.71875 180.9609375 C43.3065625 181.42757812 43.894375 181.89421875 44.5 182.375 C45.0878125 182.85710937 45.675625 183.33921875 46.28125 183.8359375 C49.28173387 185.86808339 51.95479341 186.1363685 55.47143555 186.20532227 C56.37214279 186.22526749 57.27285004 186.24521271 58.20085144 186.26576233 C59.16968765 186.28247482 60.13852386 186.29918732 61.13671875 186.31640625 C62.13129593 186.33718735 63.12587311 186.35796844 64.15058899 186.37937927 C67.32948867 186.44479412 70.50847134 186.5037224 73.6875 186.5625 C75.84180548 186.60569288 77.99610254 186.64930742 80.15039062 186.69335938 C85.43350991 186.80126123 90.71669167 186.90039491 96 187 C96 198.22 96 209.44 96 221 C88.88669806 221.09251404 81.77553668 221.17194696 74.66210938 221.21972656 C72.24927646 221.23967265 69.83649081 221.26683943 67.42382812 221.30175781 C47.70048257 221.57978175 28.25397191 221.49167301 12.75 207.4375 C-1.21972521 192.34904936 -1.44487116 174.28194997 -1.29296875 154.94921875 C-1.28736277 152.83787845 -1.28309742 150.72653422 -1.28010559 148.6151886 C-1.26873567 143.09966973 -1.23933732 137.58439368 -1.20599365 132.06896973 C-1.17512212 126.42426842 -1.16156398 120.7795273 -1.14648438 115.13476562 C-1.11445909 104.08973797 -1.0633594 93.0448893 -1 82 C-2.85516235 82.00785522 -2.85516235 82.00785522 -4.74780273 82.01586914 C-9.31924725 82.03391561 -13.89068859 82.04543071 -18.4621582 82.05493164 C-20.44393441 82.05997267 -22.42570689 82.06680538 -24.4074707 82.07543945 C-27.24952109 82.08751515 -30.09152247 82.09323045 -32.93359375 82.09765625 C-34.27108925 82.10539818 -34.27108925 82.10539818 -35.63560486 82.11329651 C-37.75740601 82.11349177 -39.8791078 82.0621003 -42 82 C-43 81 -43 81 -43.11352539 77.94897461 C-43.11336634 76.60008729 -43.10767612 75.25119386 -43.09765625 73.90234375 C-43.0962413 73.19348526 -43.09482635 72.48462677 -43.09336853 71.75428772 C-43.08775443 69.48198288 -43.07519963 67.20977525 -43.0625 64.9375 C-43.05748681 63.40039204 -43.05292359 61.86328255 -43.04882812 60.32617188 C-43.03778042 56.55074358 -43.02050641 52.77538829 -43 49 C-28.98319543 48.05302603 -15.04666135 47.91146601 -1 48 C-1.00222061 47.42814972 -1.00444122 46.85629944 -1.00672913 46.26712036 C-1.02880483 40.33026757 -1.0439162 34.39342638 -1.05493164 28.45654297 C-1.05996909 26.23909024 -1.06679922 24.02164084 -1.07543945 21.80419922 C-1.08753072 18.62206195 -1.0932341 15.43996849 -1.09765625 12.2578125 C-1.10281754 11.26194122 -1.10797882 10.26606995 -1.11329651 9.24002075 C-1.11337204 8.31921722 -1.11344757 7.3984137 -1.11352539 6.44970703 C-1.115746 5.6369632 -1.11796661 4.82421936 -1.12025452 3.98684692 C-1 2 -1 2 0 0 Z " fill="#020202" transform="translate(1665,51)"/>
<path d="M0 0 C1.51815699 0.00015911 3.0363194 0.00585313 4.55444336 0.01586914 C5.35208603 0.01728409 6.1497287 0.01869904 6.97154236 0.02015686 C9.52916146 0.02577223 12.08669429 0.03832727 14.64428711 0.05102539 C16.37410356 0.05603841 18.10392137 0.06060166 19.83374023 0.06469727 C24.08312264 0.07574664 28.33244023 0.09302153 32.58178711 0.11352539 C32.59724831 0.97463173 32.59724831 0.97463173 32.61302185 1.85313416 C32.72086145 7.80618201 32.83547688 13.75907154 32.95410156 19.71191406 C32.99752299 21.93616435 33.03919256 24.16044954 33.07910156 26.38476562 C33.13663017 29.57440734 33.20037395 32.76387219 33.26538086 35.95336914 C33.28209335 36.9544017 33.29880585 37.95543427 33.31602478 38.98680115 C33.34594261 40.36811974 33.34594261 40.36811974 33.37646484 41.77734375 C33.39978127 42.99979042 33.39978127 42.99979042 33.42356873 44.24693298 C33.38092574 46.12761658 33.38092574 46.12761658 34.58178711 47.11352539 C36.38632367 47.23158896 38.19540249 47.28087978 40.00366211 47.30297852 C41.1615625 47.31969604 42.31946289 47.33641357 43.51245117 47.3536377 C44.77283203 47.36721313 46.03321289 47.38078857 47.33178711 47.39477539 C49.29246172 47.42289579 51.25313627 47.45102148 53.21380615 47.4794693 C56.66974749 47.52827607 60.12576736 47.57069626 63.58178711 47.61352539 C67.70195563 47.66458506 71.82208623 47.71671044 75.94213867 47.77648926 C78.51173896 47.81334299 81.08140755 47.84573493 83.65112305 47.87341309 C84.80902344 47.89013062 85.96692383 47.90684814 87.15991211 47.92407227 C88.69760254 47.94286438 88.69760254 47.94286438 90.26635742 47.96203613 C92.58178711 48.11352539 92.58178711 48.11352539 93.58178711 49.11352539 C93.66969686 51.40503956 93.68872749 53.69925063 93.67944336 55.99243164 C93.6769458 57.24870361 93.67444824 58.50497559 93.671875 59.79931641 C93.662771 61.40863037 93.65366699 63.01794434 93.64428711 64.67602539 C93.62366211 69.77040039 93.60303711 74.86477539 93.58178711 80.11352539 C73.78178711 80.44352539 53.98178711 80.77352539 33.58178711 81.11352539 C33.43621838 96.68769915 33.43621838 96.68769915 33.33764648 112.26196289 C33.30782365 118.61959855 33.27264525 124.97687217 33.20458984 131.33422852 C33.15003314 136.463044 33.12031672 141.59147095 33.10740089 146.72055435 C33.09820337 148.6716943 33.08024296 150.62281436 33.05313683 152.57378769 C32.78892513 168.84819979 32.78892513 168.84819979 40.83178711 182.61352539 C47.469295 186.23398424 55.01689862 186.42689818 62.42944336 186.52758789 C63.32674667 186.54695404 64.22404999 186.56632019 65.14854431 186.58627319 C67.98036557 186.64547245 70.81222882 186.69221288 73.64428711 186.73852539 C75.57854844 186.77676022 77.51279374 186.81581505 79.44702148 186.85571289 C84.15852085 186.95264901 88.86987477 187.03268897 93.58178711 187.11352539 C93.58178711 198.00352539 93.58178711 208.89352539 93.58178711 220.11352539 C86.26705331 220.21895877 78.95513879 220.31905032 71.64030457 220.37227631 C68.23260328 220.39846659 64.82554379 220.43334104 61.41821289 220.49072266 C57.49079961 220.55202088 53.56428239 220.57988407 49.63647461 220.60180664 C48.44005341 220.62761307 47.2436322 220.65341949 46.01095581 220.68000793 C32.24680919 220.68448849 19.70280832 216.02361098 9.77709961 206.35571289 C-4.37859052 190.65064375 -4.86650153 170.6721256 -4.92993164 150.74243164 C-4.94681548 148.7236169 -4.96497057 146.70481243 -4.98432922 144.6860199 C-5.03143342 139.42385064 -5.06149712 134.16172304 -5.08776855 128.89941406 C-5.1230703 122.55806742 -5.17996815 116.2168807 -5.23316193 109.87566376 C-5.31121053 100.2883059 -5.36216751 90.70115063 -5.41821289 81.11352539 C-25.71321289 80.61852539 -25.71321289 80.61852539 -46.41821289 80.11352539 C-46.41821289 69.55352539 -46.41821289 58.99352539 -46.41821289 48.11352539 C-32.88821289 47.78352539 -19.35821289 47.45352539 -5.41821289 47.11352539 C-5.35762695 43.80450195 -5.29704102 40.49547852 -5.23461914 37.08618164 C-5.17288349 33.89580881 -5.10947356 30.70547336 -5.04589844 27.51513672 C-5.00247701 25.29088643 -4.96080744 23.06660124 -4.92089844 20.84228516 C-4.86336983 17.65264344 -4.79962605 14.46317859 -4.73461914 11.27368164 C-4.71790665 10.27264908 -4.70119415 9.27161652 -4.68397522 8.24024963 C-4.66403 7.31937057 -4.64408478 6.39849152 -4.62353516 5.44970703 C-4.60799088 4.63474258 -4.59244659 3.81977814 -4.57643127 2.9801178 C-4.29156205 -0.38064677 -3.48789161 0.11583955 0 0 Z " fill="#FA5504" transform="translate(2458.418212890625,51.886474609375)"/>
<path d="M0 0 C10.67419698 -0.02312328 21.34838806 -0.04091501 32.02260494 -0.05181217 C36.97853922 -0.05704103 41.93445642 -0.06413874 46.89038086 -0.07543945 C51.66898836 -0.08626822 56.44757938 -0.09227681 61.2261982 -0.09487724 C63.05353619 -0.09673151 64.88087324 -0.10035216 66.70820427 -0.10573006 C69.25853329 -0.11294036 71.80879337 -0.11399095 74.35913086 -0.11352539 C75.12229614 -0.11712067 75.88546143 -0.12071594 76.67175293 -0.12442017 C81.88594784 -0.11405216 81.88594784 -0.11405216 83 1 C83.10334809 3.32218035 83.14159688 5.61496327 83.13803101 7.93788147 C83.14085229 8.67221435 83.14367357 9.40654722 83.14658034 10.16313261 C83.15496422 12.64270108 83.15626784 15.12222512 83.15771484 17.60180664 C83.16238046 19.37220385 83.1675236 21.14259985 83.17311096 22.91299438 C83.18441455 26.73588512 83.19283794 30.55876795 83.19923019 34.38167 C83.20989015 40.42866564 83.23013115 46.47560491 83.25234985 52.52256775 C83.31433655 69.72164316 83.36825031 86.92071608 83.40136719 104.11987305 C83.41972283 113.61096866 83.4486743 123.10197068 83.4893719 132.59299749 C83.51043308 137.6167764 83.52589785 142.64043739 83.52817917 147.66426277 C83.5303295 152.39453869 83.54623833 157.12456945 83.57256889 161.85477066 C83.57974975 163.58812164 83.58186875 165.32150237 83.57846642 167.05486488 C83.57455364 169.4279421 83.5890839 171.80024329 83.60800171 174.17323303 C83.60247201 174.85350982 83.59694232 175.53378661 83.59124506 176.23467785 C83.67253656 182.17353551 85.02880118 187.68304655 88.9375 192.27734375 C89.618125 192.82519531 90.29875 193.37304688 91 193.9375 C91.680625 194.50339844 92.36125 195.06929687 93.0625 195.65234375 C96.27883978 197.88951557 99.03313289 198.13684301 102.83862305 198.20532227 C103.8194133 198.22526749 104.80020355 198.24521271 105.81071472 198.26576233 C106.86704605 198.28247482 107.92337738 198.29918732 109.01171875 198.31640625 C110.63676079 198.3475779 110.63676079 198.3475779 112.29463196 198.37937927 C115.75885616 198.44481797 119.2231568 198.50373353 122.6875 198.5625 C125.03451315 198.60569061 127.38151853 198.64930507 129.72851562 198.69335938 C135.48559984 198.80129198 141.24274123 198.90040811 147 199 C147 209.89 147 220.78 147 232 C139.33925762 232.04205348 131.67893848 232.08211135 124.01818085 232.10350037 C120.44997671 232.11401856 116.88186913 232.12805164 113.3137207 232.15087891 C109.21044023 232.17696249 105.10726046 232.186509 101.00390625 232.1953125 C99.73793106 232.20563507 98.47195587 232.21595764 97.1676178 232.22659302 C82.25951019 232.22846884 71.20157241 228.77766909 60.2578125 218.3828125 C47.49143912 204.90965029 45.70707815 187.7726407 45.68115234 169.98168945 C45.67183404 168.50224776 45.6616626 167.02281124 45.65071106 165.54338074 C45.62361113 161.56069895 45.60832164 157.57805212 45.59528303 153.59530282 C45.57956409 149.42060643 45.55280221 145.24598055 45.5272522 141.07133484 C45.4806186 133.18105037 45.44380028 125.2907524 45.41057932 117.40040129 C45.37224844 108.41115617 45.3228673 99.42198212 45.27259517 90.43279707 C45.16950487 71.9552502 45.08017059 53.47765983 45 35 C44.45098526 34.98969254 43.90197052 34.97938507 43.33631897 34.96876526 C37.64278719 34.86092053 31.94942079 34.74630551 26.25610352 34.62768555 C24.12885993 34.58426577 22.0015799 34.54259607 19.87426758 34.50268555 C16.82361849 34.44515293 13.77315411 34.38141033 10.72265625 34.31640625 C9.76537125 34.29969376 8.80808624 34.28298126 7.8217926 34.26576233 C6.94095505 34.24581711 6.06011749 34.22587189 5.15258789 34.20532227 C4.37315323 34.18977798 3.59371857 34.1742337 2.79066467 34.15821838 C1 34 1 34 0 33 C-0.08843793 30.55169574 -0.11528752 28.13179401 -0.09765625 25.68359375 C-0.0962413 24.95253922 -0.09482635 24.22148468 -0.09336853 23.46827698 C-0.08775408 21.12464368 -0.07519922 18.78110461 -0.0625 16.4375 C-0.05748686 14.85221492 -0.05292363 13.26692834 -0.04882812 11.68164062 C-0.03777997 7.7877239 -0.02050572 3.89387795 0 0 Z " fill="#FB5705" transform="translate(2973,39)"/>
<path d="M0 0 C5.23271569 -0.07403712 10.46512801 -0.12854783 15.69824219 -0.16479492 C17.47922067 -0.17990173 19.26016184 -0.20038835 21.04101562 -0.22631836 C23.59774978 -0.26261943 26.1539931 -0.27970688 28.7109375 -0.29296875 C29.90944839 -0.31619453 29.90944839 -0.31619453 31.13217163 -0.33988953 C33.37646484 -0.34057617 33.37646484 -0.34057617 37 0 C38.99051151 2.98576726 39.72424002 5.1221968 40.65625 8.55078125 C40.95660156 9.64197266 41.25695313 10.73316406 41.56640625 11.85742188 C41.87449219 12.99759766 42.18257812 14.13777344 42.5 15.3125 C43.11325332 17.55895725 43.72779662 19.80506282 44.34375 22.05078125 C44.61380859 23.04762939 44.88386719 24.04447754 45.16210938 25.0715332 C45.74774042 27.11834102 46.3907794 29.14919994 47.07617188 31.16479492 C48 34 48 34 48.4375 37.3125 C48.89956694 41.07071 48.89956694 41.07071 50.29296875 44.78515625 C52.78463132 52.09348753 54.51117355 59.62930447 56.36962891 67.11816406 C58.49827414 75.67064373 60.94827659 83.97349401 63.79980469 92.31689453 C65.73671967 98.26081222 67.21771532 104.3016756 68.6875 110.375 C68.98205078 111.56738281 69.27660156 112.75976562 69.58007812 113.98828125 C71.13407729 120.30904189 72.61759078 126.63955562 74 133 C74.66 133 75.32 133 76 133 C76.26554687 131.90300781 76.53109375 130.80601562 76.8046875 129.67578125 C77.16126815 128.22130753 77.5180496 126.76688302 77.875 125.3125 C78.13603516 124.2306543 78.13603516 124.2306543 78.40234375 123.12695312 C79.35461266 119.26497367 80.50882172 115.69244146 82 112 C82.66066722 109.56552458 83.28525955 107.13871172 83.875 104.6875 C84.04717041 103.98818359 84.21934082 103.28886719 84.39672852 102.56835938 C85.10308311 99.6979707 85.80139517 96.82571582 86.49267578 93.95166016 C88.24886802 86.65354692 90.11853034 79.45385212 92.4375 72.3125 C94.2897398 66.59067457 95.75614372 60.86856343 97.0625 55 C99.58967042 43.81278153 102.90006557 32.85666495 106.1875 21.875 C106.45756866 20.96685547 106.72763733 20.05871094 107.00588989 19.12304688 C107.78302375 16.51505931 108.56776259 13.909499 109.35546875 11.3046875 C109.59178009 10.51182343 109.82809143 9.71895935 110.07156372 8.90206909 C111.09101074 5.56549298 112.05124534 2.92313199 114 0 C116.76628915 -0.2667616 119.30619631 -0.34804189 122.0703125 -0.29296875 C123.26465408 -0.28660149 123.26465408 -0.28660149 124.48312378 -0.28010559 C127.03075729 -0.26328834 129.57760489 -0.22563179 132.125 -0.1875 C133.85024901 -0.17245705 135.57551039 -0.15876796 137.30078125 -0.14648438 C141.53415782 -0.11337501 145.76694559 -0.06157285 150 0 C149.40322256 4.77194316 148.47980463 9.24903117 147.14453125 13.8671875 C146.96245117 14.49933167 146.78037109 15.13147583 146.59277344 15.78277588 C146.00491234 17.81518291 145.40926182 19.84519014 144.8125 21.875 C144.50812515 22.91911041 144.50812515 22.91911041 144.19760132 23.98431396 C141.73029535 32.44069333 139.13712534 40.81732279 136.09008789 49.08520508 C133.92234684 55.02881913 132.22137302 61.07145416 130.52612305 67.1640625 C128.02963097 76.06163326 125.25701502 84.86744503 122.47689819 93.67919922 C119.04850688 104.5518898 115.74969541 115.45336811 112.60009766 126.41064453 C110.12708972 134.91401787 110.12708972 134.91401787 108.39453125 138.7734375 C106.35462902 143.49321128 105.3940548 148.37841648 104.2578125 153.37890625 C102.67212717 159.73508559 100.26201102 165.86048805 98 172 C91.62796407 172.0505963 85.2559797 172.08568957 78.88378906 172.10986328 C76.71482406 172.11993789 74.54587269 172.13359798 72.37695312 172.15087891 C69.26428874 172.17506323 66.15180349 172.18646832 63.0390625 172.1953125 C62.065065 172.20563507 61.0910675 172.21595764 60.08755493 172.22659302 C58.73638077 172.22681961 58.73638077 172.22681961 57.35791016 172.22705078 C56.56293121 172.231492 55.76795227 172.23593323 54.94888306 172.24050903 C53 172 53 172 51 170 C50.30416633 168.0016332 49.68989464 165.97457164 49.1171875 163.9375 C48.57904419 162.04813721 48.57904419 162.04813721 48.0300293 160.12060547 C47.84177582 159.44882263 47.65352234 158.77703979 47.45956421 158.0848999 C46.46992507 154.55526448 45.4585923 151.03184526 44.44921875 147.5078125 C44.2448671 146.79247345 44.04051544 146.0771344 43.82997131 145.34011841 C41.86796463 138.49197678 39.79616761 131.67937201 37.6875 124.875 C37.37474121 123.86566406 37.06198242 122.85632813 36.73974609 121.81640625 C36.13611505 119.87190946 35.5317217 117.92764912 34.92651367 115.98364258 C33.91350694 112.72146729 32.90931167 109.45665248 31.90625 106.19140625 C30.55930313 101.80935643 29.19529056 97.4333897 27.8125 93.0625 C25.8295971 86.75922203 23.93126217 80.43233748 22.04638672 74.09912109 C17.33629075 58.28058214 12.41974662 42.53358151 7.42201233 26.80371094 C6.49463365 23.88302313 5.56977761 20.96154197 4.64593506 18.03973389 C4.22053935 16.6964192 3.79385468 15.35351192 3.36578369 14.01104736 C2.78798603 12.19745132 2.21608658 10.38197924 1.64453125 8.56640625 C1.32460205 7.55650635 1.00467285 6.54660645 0.67504883 5.50610352 C0 3 0 3 0 0 Z " fill="#010102" transform="translate(1031,100)"/>
<path d="M0 0 C1.13285887 0.00539716 1.13285887 0.00539716 2.28860378 0.01090336 C3.09161136 0.01078282 3.89461893 0.01066229 4.72196007 0.0105381 C7.33331369 0.01128726 9.94459683 0.01891563 12.55593777 0.0267725 C14.1633186 0.02824191 15.77069991 0.02926262 17.37808132 0.02982426 C23.35273866 0.03507726 29.32738577 0.04903834 35.30203152 0.06192875 C48.64640652 0.08255375 61.99078152 0.10317875 75.73953152 0.12442875 C76.06953152 45.33442875 76.39953152 90.54442875 76.73953152 137.12442875 C100.99453152 137.61942875 100.99453152 137.61942875 125.73953152 138.12442875 C127.73953152 140.12442875 127.73953152 140.12442875 127.98245144 143.18131351 C127.97834255 144.4632056 127.97423367 145.74509769 127.97000027 147.065835 C127.96954205 147.74871082 127.96908382 148.43158665 127.96861172 149.13515568 C127.96559043 150.57845644 127.95770774 152.02175397 127.94534206 153.46500492 C127.92707482 155.68167428 127.92483244 157.89792633 127.92507839 160.11466312 C127.8869562 170.97700407 127.8869562 170.97700407 126.73953152 172.12442875 C124.97024194 172.22295341 123.19698687 172.25074964 121.42495632 172.25141239 C120.27228771 172.25423222 119.1196191 172.25705204 117.93202114 172.25995731 C116.65613628 172.25793308 115.38025143 172.25590885 114.06570339 172.25382328 C112.71744139 172.25517731 111.36917977 172.25695725 110.02091885 172.25913334 C106.34953124 172.26370748 102.67817161 172.26191819 99.00678349 172.25875425 C95.17286635 172.25623055 91.33895168 172.25856822 87.50503445 172.26014042 C81.06545486 172.26196209 74.62588672 172.25955588 68.18630886 172.25479984 C60.73080989 172.24935723 53.27533826 172.25111989 45.81983995 172.25662625 C39.43004576 172.26115746 33.04025982 172.26180789 26.65046453 172.25918758 C22.82915104 172.25762485 19.00785042 172.25743092 15.18653774 172.26072407 C11.59479327 172.26360291 8.0030842 172.26162687 4.41134357 172.25582981 C2.45657685 172.25386668 0.50180714 172.25685602 -1.45295811 172.25995731 C-2.60562672 172.25713749 -3.75829533 172.25431767 -4.94589329 172.25141239 C-5.95395779 172.25103537 -6.96202229 172.25065834 -8.00063419 172.25026989 C-10.26046848 172.12442875 -10.26046848 172.12442875 -11.26046848 171.12442875 C-11.36070257 168.85667984 -11.3912819 166.58579711 -11.39328098 164.315835 C-11.39423771 163.6339159 -11.39519444 162.9519968 -11.39618015 162.24941349 C-11.39686187 160.80434928 -11.39500817 159.35928203 -11.39083958 157.91422367 C-11.38549932 155.69971682 -11.39078053 153.48541356 -11.39718723 151.27091312 C-11.39652629 149.86921997 -11.39524479 148.46752694 -11.39328098 147.065835 C-11.39215305 145.78394291 -11.39102512 144.50205082 -11.38986301 143.18131351 C-11.26046848 140.12442875 -11.26046848 140.12442875 -10.26046848 138.12442875 C5.90953152 138.12442875 22.07953152 138.12442875 38.73953152 138.12442875 C38.73953152 103.80442875 38.73953152 69.48442875 38.73953152 34.12442875 C16.95953152 33.62942875 16.95953152 33.62942875 -5.26046848 33.12442875 C-7.16896796 31.21592927 -6.39106482 27.80964101 -6.39328098 25.28067875 C-6.39423771 24.59638798 -6.39519444 23.91209721 -6.39618015 23.20707035 C-6.39686178 21.75780998 -6.39500871 20.30854657 -6.39083958 18.85929203 C-6.385491 16.63379947 -6.39078508 14.40850874 -6.39718723 12.1830225 C-6.39652645 10.77807413 -6.39524528 9.3731259 -6.39328098 7.96817875 C-6.39215305 6.68104984 -6.39102512 5.39392094 -6.38986301 4.06778812 C-6.17352269 -0.85334195 -4.44915656 0.008993 0 0 Z " fill="#000000" transform="translate(661.2604684829712,99.87557125091553)"/>
<path d="M0 0 C0.90363281 0.33902344 1.80726563 0.67804688 2.73828125 1.02734375 C14.0924501 5.98927446 21.57055268 15.43820273 26.17578125 26.75537109 C30.18085178 37.66254482 31.54366843 47.27249803 31.25 58.875 C31.1675 63.53625 31.085 68.1975 31 73 C19.12 73 7.24 73 -5 73 C-5.81803352 68.90983241 -6.05286931 65.95807052 -5.9375 61.875 C-5.88841174 53.20601306 -6.13281337 44.84505107 -12 38 C-16.56017744 33.43982256 -20.85307324 31.73284792 -27 30 C-28.485 29.505 -28.485 29.505 -30 29 C-41.29441455 28.17628393 -50.7032536 29.61305558 -60.0234375 36.265625 C-65.69067819 41.2384607 -68.6187976 48.08007999 -69.19665909 55.53814507 C-69.28543363 58.59952157 -69.31276443 61.65583633 -69.31884766 64.71850586 C-69.33391609 66.46105148 -69.33391609 66.46105148 -69.34928894 68.23880005 C-69.38008641 72.06414309 -69.39714683 75.88941625 -69.4140625 79.71484375 C-69.4327769 82.37285879 -69.45225493 85.03085726 -69.4727478 87.68885803 C-69.51943296 93.96075894 -69.55622652 100.23267686 -69.58942068 106.5046621 C-69.62771485 113.64863748 -69.67710576 120.79252286 -69.72740483 127.93642223 C-69.83057192 142.62421647 -69.91841696 157.31206857 -70 172 C-82.21 172 -94.42 172 -107 172 C-107 115.24 -107 58.48 -107 0 C-95.12 0 -83.24 0 -71 0 C-70 1 -70 1 -69.88647461 2.85766602 C-69.89171143 3.64842529 -69.89694824 4.43918457 -69.90234375 5.25390625 C-69.90556641 6.10791016 -69.90878906 6.96191406 -69.91210938 7.84179688 C-69.92467773 9.18854492 -69.92467773 9.18854492 -69.9375 10.5625 C-69.94201172 11.46419922 -69.94652344 12.36589844 -69.95117188 13.29492188 C-69.96299775 15.53001314 -69.9794778 17.76497437 -70 20 C-66.5197668 18.38974285 -64.96196231 16.90687825 -62.75 13.75 C-48.24560472 -5.29463666 -21.24342654 -7.99597297 0 0 Z " fill="#020202" transform="translate(2125,100)"/>
<path d="M0 0 C5.57889996 2.4017272 9.42009338 6.46108335 12.8984375 11.37109375 C13.89323401 14.35548328 14.09608927 16.49764961 14.1484375 19.62109375 C14.18710937 20.99007812 14.18710937 20.99007812 14.2265625 22.38671875 C13.3693534 30.18323957 9.27314602 34.54647092 3.8515625 39.7734375 C3.16213562 40.45483292 2.47270874 41.13622833 1.76239014 41.83827209 C-0.43294916 44.00476125 -2.64148732 46.15714829 -4.8515625 48.30859375 C-7.0447326 50.45897383 -9.23497146 52.61225607 -11.42266846 54.76820374 C-12.78021497 56.10440239 -14.14126967 57.43705031 -15.50653076 58.7653656 C-19.32101531 62.50127793 -22.88568983 66.3669008 -26.37133789 70.41007996 C-29.1730403 73.58549259 -32.16570765 76.55856641 -35.171875 79.5390625 C-35.81599335 80.1817659 -36.46011169 80.8244693 -37.12374878 81.48664856 C-39.15565255 83.5130229 -41.19102107 85.53587424 -43.2265625 87.55859375 C-44.59789027 88.92489537 -45.96898587 90.29143005 -47.33984375 91.65820312 C-49.85550263 94.16574944 -52.37248074 96.67195428 -54.89111328 99.17651367 C-55.43730316 99.72001465 -55.98349304 100.26351562 -56.54623413 100.82348633 C-57.99631148 102.26636522 -59.44686751 103.70876299 -60.89746094 105.15112305 C-63.09610042 107.36559234 -65.16583415 109.65328852 -67.2265625 111.99609375 C-84.39389249 131.04868793 -84.39389249 131.04868793 -95.6015625 131.87109375 C-104.26023964 131.42479545 -110.32813465 124.57690825 -116.07421875 118.7265625 C-116.80096298 117.9979451 -117.52770721 117.2693277 -118.276474 116.51863098 C-119.80349272 114.98492673 -121.3269282 113.44764728 -122.84692383 111.90698242 C-125.15391823 109.56887484 -127.4713667 107.24156258 -129.79101562 104.91601562 C-131.28187327 103.41598378 -132.77212777 101.91535219 -134.26171875 100.4140625 C-134.94420181 99.72732956 -135.62668488 99.04059662 -136.32984924 98.33305359 C-155.35499669 79.02857023 -155.35499669 79.02857023 -155.4765625 69.55859375 C-155.3516227 64.14672775 -154.86375572 60.37798247 -151.1015625 56.37109375 C-145.50086597 51.05457632 -140.63262261 49.71384355 -132.99609375 49.8671875 C-126.16322398 51.05671544 -122.04021404 55.01566641 -117.390625 59.7890625 C-116.77762543 60.40630692 -116.16462585 61.02355133 -115.53305054 61.65950012 C-113.59035459 63.618894 -111.65839307 65.58849243 -109.7265625 67.55859375 C-108.40564486 68.89456966 -107.08403721 70.22986371 -105.76171875 71.56445312 C-102.53362728 74.82549591 -99.31511731 78.09572762 -96.1015625 81.37109375 C-93.16626901 80.04626294 -91.09118832 78.60964713 -88.82104492 76.33349609 C-88.20327682 75.71880463 -87.58550873 75.10411316 -86.94902039 74.47079468 C-86.29166397 73.80625275 -85.63430756 73.14171082 -84.95703125 72.45703125 C-84.26901932 71.7685611 -83.58100739 71.08009094 -82.87214661 70.37075806 C-81.41654182 68.91213392 -79.96336653 67.45108184 -78.51245117 65.98779297 C-76.31277946 63.77000603 -74.10535363 61.56018498 -71.89648438 59.3515625 C-70.47869678 57.92885353 -69.06136469 56.50569044 -67.64453125 55.08203125 C-66.99324753 54.4296347 -66.34196381 53.77723816 -65.67094421 53.10507202 C-61.88814583 49.28379668 -58.30449382 45.34589115 -54.7882843 41.27896118 C-52.23002672 38.38529115 -49.50928903 35.67344229 -46.7578125 32.96484375 C-45.8986322 32.11134338 -45.8986322 32.11134338 -45.02209473 31.24060059 C-42.61216968 28.84676689 -40.19621772 26.45905132 -37.78076172 24.07080078 C-28.84979473 15.29429559 -28.84979473 15.29429559 -20.53662109 5.93945312 C-14.80511717 -0.32444296 -8.1567652 -2.44096505 0 0 Z " fill="#FEFDFC" transform="translate(527.1015625,90.62890625)"/>
<path d="M0 0 C5.0167931 6.68905747 8.16820997 12.70424372 8.23950195 21.14233398 C8.24607315 21.78673935 8.25264435 22.43114471 8.25941467 23.09507751 C8.27912631 25.22875091 8.29081174 27.36235363 8.30078125 29.49609375 C8.30485678 30.22857897 8.3089323 30.96106419 8.31313133 31.71574593 C8.33399316 35.60045208 8.34828862 39.48512301 8.35766602 43.36987305 C8.36866945 47.35402535 8.40299733 51.3376097 8.44283772 55.32156277 C8.4691905 58.40768863 8.47737471 61.49368374 8.48094749 64.57991219 C8.48577354 66.04651747 8.49727165 67.51311852 8.51598549 68.97961235 C8.63808378 79.19086393 8.15270869 89.76292105 1.75 98.25 C-6.96181486 106.35401383 -16.32681995 107.13425887 -27.75 107.1875 C-28.98298828 107.22037109 -30.21597656 107.25324219 -31.48632812 107.28710938 C-40.64884087 107.34092018 -46.19690352 105.63086119 -53.2421875 99.86328125 C-53.76039063 99.26902344 -54.27859375 98.67476563 -54.8125 98.0625 C-55.34617187 97.48113281 -55.87984375 96.89976562 -56.4296875 96.30078125 C-61.60289838 87.54920948 -61.39747748 77.88926355 -61.37109375 68.03125 C-61.3756661 66.52249927 -61.38097477 65.0137506 -61.38697815 63.50500488 C-61.39586311 60.35823043 -61.39353854 57.21171041 -61.38354492 54.06494141 C-61.37204911 50.05717588 -61.39229889 46.05029072 -61.42146206 42.04264069 C-61.43991396 38.93168682 -61.43951407 35.8209406 -61.43382454 32.70994568 C-61.43367248 31.23334008 -61.43961976 29.75671935 -61.45211601 28.28016663 C-61.52640264 18.06792413 -60.46107178 10.08569441 -54.75 1.4375 C-41.05535319 -11.64849584 -14.67711654 -11.24204671 0 0 Z " fill="#FEFEFD" transform="translate(2897.9375,135.25)"/>
<path d="M0 0 C1.53672445 0.05603874 3.07461628 0.0794793 4.61230469 0.09277344 C11.89395458 0.43451152 18.57537043 3.91874671 23.82714844 8.89355469 C31.25340554 17.97828112 31.35682552 28.7117974 31.29980469 39.94824219 C31.30183113 41.36970671 31.30474728 42.79117022 31.3085022 44.21263123 C31.31289739 47.17530323 31.3065851 50.13770185 31.29248047 53.1003418 C31.27537418 56.87492624 31.28525628 60.64887119 31.30319786 64.42343235 C31.31409884 67.35333474 31.31056092 70.28308838 31.30281448 73.21299553 C31.30083068 74.60389217 31.30320686 75.99480285 31.31025314 77.38568306 C31.35605713 88.96219513 30.24418069 98.51076002 21.90136719 107.06933594 C13.04950522 114.13853126 6.26227712 114.29697665 -4.84863281 114.38183594 C-6.72421875 114.4253418 -6.72421875 114.4253418 -8.63769531 114.46972656 C-17.32388934 114.52940971 -22.7497741 113.54282051 -29.52441406 108.13183594 C-30.14703125 107.45121094 -30.76964844 106.77058594 -31.41113281 106.06933594 C-32.04664062 105.40933594 -32.68214844 104.74933594 -33.33691406 104.06933594 C-38.58112264 95.13906501 -38.5249177 84.71639867 -38.42675781 74.65136719 C-38.42368858 73.30002556 -38.42182133 71.94868073 -38.42108154 70.59733582 C-38.41651964 67.78782722 -38.40225318 64.97861184 -38.37988281 62.16918945 C-38.35152185 58.59213777 -38.34065747 55.0153144 -38.33620071 51.4381609 C-38.33101649 47.98836784 -38.31651866 44.53863008 -38.30175781 41.08886719 C-38.295383 39.18075005 -38.295383 39.18075005 -38.28887939 37.23408508 C-38.11180413 15.08250725 -38.11180413 15.08250725 -29.46191406 6.43261719 C-27.73573479 5.0927158 -26.04319482 4.06385206 -24.09863281 3.06933594 C-23.48890625 2.75222656 -22.87917969 2.43511719 -22.25097656 2.10839844 C-15.18679079 -0.85883181 -7.5094202 -0.27991856 0 0 Z " fill="#FEFDFD" transform="translate(2683.0986328125,127.9306640625)"/>
<path d="M0 0 C6.73381332 5.82967406 9.50863177 12.43663152 10.28959656 21.27886963 C10.41135152 25.02874721 10.44201735 28.76767832 10.43359375 32.51953125 C10.438169 33.90899405 10.4434785 35.29845461 10.44947815 36.68791199 C10.45835991 39.5867131 10.45604445 42.48523803 10.44604492 45.3840332 C10.43458152 49.06195971 10.45475045 52.73892222 10.48396206 56.4167223 C10.50249159 59.28331865 10.50199841 62.14969128 10.49632454 65.01633263 C10.49610073 67.01953115 10.51284542 69.02270921 10.53013611 71.02583313 C10.44738963 82.03466744 9.01979176 93.23506711 0.99609375 101.4140625 C-9.30363628 109.59740965 -23.53898716 109.0776831 -36 108 C-43.4462231 106.36229009 -48.71342276 103.18423594 -53.59765625 97.35546875 C-58.60872194 88.9385534 -58.45847838 80.76685213 -58.43359375 71.2578125 C-58.43816322 69.72378307 -58.44347105 68.18975568 -58.44947815 66.6557312 C-58.45838059 63.4499273 -58.45601972 60.24437289 -58.44604492 57.03857422 C-58.43456832 52.95452827 -58.45476052 48.8713487 -58.48396206 44.78741646 C-58.50241594 41.62155799 -58.50201331 38.45590355 -58.49632454 35.29000473 C-58.49617239 33.7854885 -58.5021274 32.28095748 -58.51461601 30.77649307 C-58.59261459 19.84007085 -57.66921599 9.8949195 -49.90234375 1.53515625 C-36.86462451 -8.98604224 -13.80505838 -9.44704606 0 0 Z " fill="#FDFDFE" transform="translate(1915,134)"/>
<path d="M0 0 C1.64645567 -0.00322145 3.29290799 -0.00904195 4.93934631 -0.01725769 C9.39820818 -0.03176445 13.85616532 -0.00888693 18.3149178 0.02160144 C22.98593013 0.0480076 27.65691591 0.04266936 32.32798767 0.04151917 C40.17030929 0.0443262 48.01228205 0.07033903 55.85449219 0.11132812 C64.91650607 0.1585183 73.9781382 0.1743217 83.0402661 0.17212147 C92.69623099 0.17009381 102.35204906 0.1909228 112.00796962 0.21846128 C114.78709329 0.22484955 117.56619322 0.22698403 120.34532356 0.22817802 C124.7145664 0.23119573 129.08348984 0.24954528 133.45262718 0.27967644 C135.05458749 0.28842457 136.65658456 0.29213297 138.25856781 0.29039383 C140.44815232 0.28891651 142.63684875 0.30593608 144.8263092 0.32762146 C146.66271013 0.33516276 146.66271013 0.33516276 148.53621006 0.34285641 C153.34582833 0.89815169 156.65190707 2.50200473 160.06616211 5.91625977 C163.5854342 11.37719921 165.60094011 16.18913344 164.38256836 22.71704102 C162.63197938 29.70582649 160.88720103 33.5099984 154.87866211 37.72875977 C151.98227326 39.17695419 149.46189401 38.86815931 146.22467041 38.88265991 C145.18715138 38.88923329 145.18715138 38.88923329 144.12867236 38.89593947 C141.79956468 38.9093464 139.47049485 38.91551056 137.14135742 38.92163086 C135.47594023 38.92953036 133.81052475 38.93779922 132.14511108 38.94641113 C126.66568643 38.97264963 121.18625407 38.98794094 115.70678711 39.00219727 C113.82172389 39.00755626 111.93666071 39.01293377 110.0515976 39.01832962 C102.21091499 39.03996134 94.37023447 39.05869846 86.52952957 39.06995201 C75.28690095 39.0861934 64.04461785 39.11937238 52.80211949 39.17635286 C44.90056451 39.21503696 36.99910199 39.23458291 29.09745479 39.23987257 C24.37655255 39.24352825 19.65601866 39.25557216 14.93521881 39.28797531 C10.49296422 39.31802896 6.05130137 39.32437757 1.60896683 39.31259155 C-0.02044504 39.31237059 -1.64988415 39.32069477 -3.27920151 39.33824539 C-5.50665003 39.36093057 -7.73195159 39.35264813 -9.95941162 39.33676147 C-11.20492168 39.34007162 -12.45043175 39.34338177 -13.73368454 39.34679222 C-18.26602809 38.51992621 -19.86499942 36.95047595 -23.12133789 33.72875977 C-26.07547689 29.19160113 -26.52906688 25.59631374 -26.49633789 20.22875977 C-26.50407227 18.96032227 -26.51180664 17.69188477 -26.51977539 16.38500977 C-25.84902036 10.22984595 -23.31883529 5.92094967 -18.60077095 2.01106453 C-12.99742197 -0.88685645 -6.17320403 -0.06997323 0 0 Z " fill="#020303" transform="translate(157.121337890625,38.271240234375)"/>
<path d="M0 0 C1.03501533 -0.00445668 1.03501533 -0.00445668 2.09094006 -0.0090034 C4.4023596 -0.01767302 6.71372724 -0.01919716 9.02516174 -0.02069092 C10.68264374 -0.02532022 12.34012467 -0.03034503 13.99760437 -0.03573608 C18.49962536 -0.04884882 23.00163145 -0.05530251 27.50366855 -0.05974674 C30.31588425 -0.06267847 33.12809587 -0.06678341 35.94030952 -0.07125092 C44.73796903 -0.08492109 53.53561922 -0.09459086 62.33328861 -0.09845281 C72.49157811 -0.10293656 82.64973326 -0.12050116 92.80798191 -0.1494534 C100.65945857 -0.17105527 108.51089738 -0.18115624 116.36240345 -0.18249393 C121.05239945 -0.18354276 125.74226907 -0.18946758 130.43223381 -0.20731354 C134.84239827 -0.22376902 139.25234099 -0.22596206 143.66252518 -0.21717453 C145.28105449 -0.21640288 146.89959561 -0.22076375 148.51809502 -0.23063278 C150.72782325 -0.24331692 152.93676181 -0.23749546 155.14648438 -0.22705078 C157.00117419 -0.22925062 157.00117419 -0.22925062 158.89333248 -0.2314949 C162.45544806 0.1769904 164.29164668 0.9977696 167.13673401 3.14044189 C171.57732084 8.97664173 173.86473079 13.73914129 173.13673401 21.14044189 C171.34274277 27.33698459 169.16450193 32.03884175 164.13673401 36.14044189 C161.23132534 37.59314623 158.6916175 37.27988407 155.44477844 37.29434204 C154.74901553 37.29872429 154.05325263 37.30310655 153.33640599 37.3076216 C150.99347879 37.32102884 148.65058922 37.32719276 146.30763245 37.33331299 C144.63236317 37.34121246 142.9570956 37.34948132 141.28182983 37.35809326 C135.76993947 37.38433202 130.25804143 37.39962308 124.74610901 37.41387939 C122.84990178 37.41923838 120.95369461 37.42461588 119.05748749 37.43001175 C111.17048171 37.45164349 103.28347799 37.47038063 95.39645004 37.48163414 C84.08725923 37.49787565 72.77841189 37.53105492 61.46935058 37.58803499 C53.52108685 37.62671851 45.57291505 37.64626497 37.62455964 37.6515547 C32.87571265 37.65521045 28.12723184 37.66725516 23.37848663 37.69965744 C18.90996822 37.72971006 14.44203806 37.73606005 9.97344017 37.72427368 C8.33435309 37.72405271 6.69523894 37.73237757 5.0562458 37.74992752 C2.81566416 37.77261096 0.57721719 37.76433097 -1.66337585 37.7484436 C-2.91626026 37.75175375 -4.16914467 37.7550639 -5.45999527 37.75847435 C-10.00560275 36.93299405 -11.60052018 35.37256022 -14.86326599 32.14044189 C-19.07801405 25.62186968 -18.74652678 18.64815862 -17.86326599 11.14044189 C-16.2499864 7.0355416 -13.94976305 4.22693896 -10.86326599 1.14044189 C-7.31137923 -0.150061 -3.74411195 0.00901029 0 0 Z " fill="#000000" transform="translate(148.86326599121094,235.85955810546875)"/>
<path d="M0 0 C0.7031153 -0.00623996 1.4062306 -0.01247993 2.13065243 -0.01890898 C4.48075584 -0.03483192 6.829821 -0.0222384 9.17993164 -0.00964355 C10.86712244 -0.01506502 12.5543085 -0.02218782 14.2414856 -0.03088379 C18.82000971 -0.04911728 23.39817324 -0.04204955 27.97670364 -0.02936745 C32.76833314 -0.01923991 37.55993179 -0.02863244 42.3515625 -0.03491211 C50.39824974 -0.04218923 58.44479013 -0.03259911 66.49145508 -0.0135498 C75.79432538 0.00821907 85.09684503 0.00116774 94.39970684 -0.02085543 C102.38711136 -0.03900758 110.37441032 -0.04156865 118.3618288 -0.03110075 C123.1322994 -0.0248648 127.90260518 -0.02403298 132.67306519 -0.0372467 C137.15803313 -0.04880189 141.642549 -0.04078565 146.12746811 -0.01766968 C147.77339807 -0.0123808 149.41936609 -0.01389946 151.06528091 -0.02272034 C153.31242602 -0.03365299 155.55812295 -0.019942 157.80517578 0 C159.06245987 0.0015081 160.31974396 0.0030162 161.61512756 0.00457001 C165.49163494 0.59812742 167.12235813 1.80197501 169.90258789 4.50793457 C173.51159958 9.46501828 175.31631811 15.3928001 174.90258789 21.50793457 C173.32159698 28.08721354 170.78769628 32.85781393 164.90258789 36.50793457 C161.47646236 37.13714027 161.47646236 37.13714027 157.6469574 37.14285278 C156.93890412 37.15065274 156.23085084 37.15845269 155.5013414 37.16648901 C153.14033121 37.18635549 150.7809426 37.17066741 148.41992188 37.15490723 C146.72272809 37.16168573 145.02554167 37.17059018 143.32836914 37.18145752 C138.72711192 37.20422816 134.12641599 37.19542431 129.52514911 37.17956209 C124.70816214 37.16689356 119.89122288 37.17864566 115.07423401 37.18649292 C106.98641336 37.19558583 98.89882112 37.18361006 90.81103516 37.15979004 C81.46093056 37.13257024 72.11137095 37.14140053 62.76127952 37.16892207 C54.73137543 37.19161138 46.70163539 37.19481437 38.6717096 37.18172872 C33.87662926 37.17393441 29.08180512 37.17289224 24.28674126 37.18941116 C19.77950647 37.20385443 15.27297458 37.19383714 10.76581573 37.16493988 C9.11182637 37.15832865 7.45777785 37.16022744 5.80381203 37.1712532 C3.54548788 37.18491991 1.28941537 37.16778395 -0.96876526 37.14285278 C-2.23212487 37.14096766 -3.49548449 37.13908253 -4.79712772 37.13714027 C-8.99732455 36.3363645 -10.42717577 34.77434417 -13.09741211 31.50793457 C-16.68318956 25.44920715 -16.92655209 19.44507244 -16.09741211 12.50793457 C-13.5976835 4.21582407 -8.83283625 0.01059492 0 0 Z " fill="#000000" transform="translate(147.097412109375,137.4920654296875)"/>
<path d="M0 0 C0.77214844 0.474375 1.54429688 0.94875 2.33984375 1.4375 C9.51011063 6.40061318 13.86505256 12.67151793 15.69140625 21.24609375 C16.86100606 31.69862261 14.55109319 40.71741897 8 49 C1.6283413 56.0397866 -7.09613277 59.52822238 -16.50390625 60.0859375 C-25.69719783 59.76942355 -33.52584198 55.38282978 -40 49 C-45.92025279 39.9338874 -48.44434412 31.12749572 -46.5390625 20.40625 C-43.88341514 10.2835471 -37.72342627 3.573729 -29 -2 C-19.75546248 -6.08893005 -8.53074592 -5.27869361 0 0 Z " fill="#010101" transform="translate(81,128)"/>
<path d="M0 0 C6.91413131 4.92369957 11.54887306 11.45941152 13.8828125 19.65234375 C15.52937027 29.86100192 13.74408103 38.20995254 7.8203125 46.83984375 C2.13955824 53.78773367 -5.64990311 58.11039833 -14.4921875 59.52734375 C-22.71495045 59.83521631 -30.98815661 57.48630317 -37.3046875 52.15234375 C-38.0265625 51.28609375 -38.7484375 50.41984375 -39.4921875 49.52734375 C-40.3378125 48.66109375 -41.1834375 47.79484375 -42.0546875 46.90234375 C-47.212926 40.51983978 -49.22869191 32.37539518 -48.87109375 24.2890625 C-47.66780807 15.51872255 -44.20348664 8.34719898 -37.4921875 2.52734375 C-24.85706943 -6.4634138 -13.59911891 -8.03584299 0 0 Z " fill="#010102" transform="translate(82.4921875,30.47265625)"/>
<path d="M0 0 C1.05779663 0.01353516 1.05779663 0.01353516 2.13696289 0.02734375 C11.75013921 0.34429793 18.33824241 3.58908794 25.26953125 10.15234375 C31.10855822 16.88968256 33.55138223 24.55548767 33.40234375 33.3984375 C32.75639375 42.04422987 28.54072407 49.95724315 22.31640625 55.83203125 C14.10480769 62.21193108 5.47988215 64.38848506 -4.75 63.4375 C-13.67925881 61.26091121 -20.51730386 56.07964238 -25.625 48.5 C-29.99509414 40.8339426 -31.10064449 32.23637484 -29.09765625 23.63671875 C-25.97262569 13.93973551 -19.82133508 7.02874359 -11.08203125 1.859375 C-7.29265185 0.24233619 -4.051227 -0.06202094 0 0 Z " fill="#010101" transform="translate(63.75,222.5625)"/>
<path d="M0 0 C5.91897981 3.84687228 8.54525806 8.3580645 10.42578125 15.07421875 C11.73861327 21.33473061 13.6516672 30.50916561 10.6875 36.4375 C1.8386761 36.46062589 -7.01013747 36.47841634 -15.85898495 36.48931217 C-19.96744285 36.49454046 -24.07588014 36.50163713 -28.18432617 36.51293945 C-32.14596828 36.52377025 -36.10759052 36.52977724 -40.06924629 36.53237724 C-41.58398311 36.53423114 -43.09871879 36.5378511 -44.61344719 36.54323006 C-46.72791813 36.55044307 -48.84230594 36.55149083 -50.95678711 36.55102539 C-52.76547523 36.55435631 -52.76547523 36.55435631 -54.61070251 36.55775452 C-57.3125 36.4375 -57.3125 36.4375 -58.3125 35.4375 C-59.12617039 24.46859728 -58.9111626 13.25842665 -51.6875 4.4375 C-39.34890119 -8.12874823 -14.8082958 -7.81548945 0 0 Z " fill="#FCFCFC" transform="translate(1321.3125,132.5625)"/>
<path d="M0 0 C1.01513672 -0.01160156 2.03027344 -0.02320312 3.07617188 -0.03515625 C8.56203786 -0.0136571 12.79033944 0.13006324 17.4375 3.375 C22.17350595 8.35611877 20.91081415 14.84967473 20.875 21.3125 C20.9049707 23.22579102 20.9049707 23.22579102 20.93554688 25.17773438 C20.93490234 26.40685547 20.93425781 27.63597656 20.93359375 28.90234375 C20.93637329 30.58444946 20.93637329 30.58444946 20.93920898 32.30053711 C20.32250704 36.07967462 19.12462532 37.6861008 16.4375 40.375 C11.45649265 43.80993077 4.85822539 42.78510424 -0.9375 42.8125 C-2.15695312 42.84537109 -3.37640625 42.87824219 -4.6328125 42.91210938 C-14.65849712 42.97230726 -14.65849712 42.97230726 -18.3515625 39.97265625 C-22.73073911 34.82751059 -21.78310253 29.71006381 -21.8125 23.1875 C-21.833125 22.06279297 -21.85375 20.93808594 -21.875 19.77929688 C-21.92837399 8.43065219 -21.92837399 8.43065219 -18.5625 3.375 C-12.7508368 -0.37693013 -6.75393495 -0.077483 0 0 Z " fill="#040405" transform="translate(718.5625,30.625)"/>
<path d="M0 0 C0.66 0 1.32 0 2 0 C1.67657623 1.0003981 1.35315247 2.0007962 1.01992798 3.0315094 C-0.07577523 6.88535385 -0.27708193 10.47937926 -0.31884766 14.49584961 C-0.32889328 15.20888245 -0.3389389 15.92191528 -0.34928894 16.65655518 C-0.3799178 18.98847729 -0.39709883 21.3202857 -0.4140625 23.65234375 C-0.43279054 25.27902694 -0.45236516 26.90570059 -0.4727478 28.53236389 C-0.52390231 32.79507803 -0.56361686 37.05782361 -0.60089111 41.32067871 C-0.64103582 45.67805654 -0.69208023 50.03530548 -0.7421875 54.39257812 C-0.83874906 62.9282971 -0.92321655 71.4640803 -1 80 C-3.17989051 76.73016423 -3.29663211 75.5841973 -3.44921875 71.76953125 C-3.49328857 70.67519775 -3.5373584 69.58086426 -3.58276367 68.45336914 C-3.61732666 67.25188232 -3.65188965 66.05039551 -3.6875 64.8125 C-3.72657471 63.56267334 -3.76564941 62.31284668 -3.8059082 61.02514648 C-4.11480357 49.53460959 -3.94194474 38.05246189 -3.6875 26.5625 C-3.6705307 25.6825235 -3.6535614 24.802547 -3.63607788 23.89590454 C-3.58452896 21.36900431 -3.5192903 18.84285359 -3.44921875 16.31640625 C-3.4344751 15.56437927 -3.41973145 14.81235229 -3.40454102 14.03753662 C-3.23662545 8.87985736 -2.3064906 4.61298121 0 0 Z " fill="#EE5919" transform="translate(2838,143)"/>
<path d="M0 0 C0.66 0 1.32 0 2 0 C1.85851011 1.6045556 1.71164314 3.20863767 1.5625 4.8125 C1.48128906 5.70582031 1.40007813 6.59914062 1.31640625 7.51953125 C1 10 1 10 0 13 C-0.11734984 15.06966464 -0.17681627 17.14278334 -0.20532227 19.21557617 C-0.22526749 20.4966777 -0.24521271 21.77777924 -0.26576233 23.09770203 C-0.2827454 24.49612304 -0.29962425 25.89454531 -0.31640625 27.29296875 C-0.33698166 28.7235829 -0.35797829 30.15419105 -0.37937927 31.58479309 C-0.43453933 35.34780006 -0.48397529 39.11086135 -0.53222656 42.8739624 C-0.58248593 46.71485216 -0.63814883 50.55566316 -0.69335938 54.39648438 C-0.80086673 61.93092287 -0.90232811 69.46542691 -1 77 C-3 75 -3 75 -3.24723816 72.46629333 C-3.24581314 71.39645706 -3.24438812 70.32662079 -3.24291992 69.22436523 C-3.24599655 68.0122789 -3.24907318 66.80019257 -3.25224304 65.55137634 C-3.24505753 64.23375809 -3.23787201 62.91613983 -3.23046875 61.55859375 C-3.22927603 60.192958 -3.22882398 58.82732142 -3.2290802 57.46168518 C-3.22751378 54.59248753 -3.21921891 51.72341435 -3.20581055 48.85424805 C-3.1889328 45.19844629 -3.18499305 41.54278281 -3.18575573 37.88694668 C-3.18548186 35.06171884 -3.17996429 32.2365205 -3.17275429 29.41130257 C-3.16807085 27.41462182 -3.16630123 25.41793491 -3.16459656 23.42124939 C-3.13070368 16.86483618 -2.88318495 10.49856738 -2 4 C-1.34 4 -0.68 4 0 4 C0 2.68 0 1.36 0 0 Z " fill="#FA4003" transform="translate(2645,141)"/>
<path d="M0 0 C1.51815699 0.00015911 3.0363194 0.00585313 4.55444336 0.01586914 C5.35208603 0.01728409 6.1497287 0.01869904 6.97154236 0.02015686 C9.52916146 0.02577223 12.08669429 0.03832727 14.64428711 0.05102539 C16.37410356 0.05603841 18.10392137 0.06060166 19.83374023 0.06469727 C24.08312264 0.07574664 28.33244023 0.09302153 32.58178711 0.11352539 C30.58178711 2.11352539 30.58178711 2.11352539 27.41723633 2.34057617 C26.07360748 2.34025928 24.72995301 2.3289472 23.38647461 2.30883789 C22.67903107 2.306008 21.97158752 2.3031781 21.2427063 2.30026245 C18.98056201 2.28905676 16.71881196 2.26395218 14.45678711 2.23852539 C12.92424074 2.22849606 11.39168817 2.21937013 9.85913086 2.21118164 C6.0998641 2.18911626 2.34089247 2.15458435 -1.41821289 2.11352539 C-1.40661133 3.10094727 -1.39500977 4.08836914 -1.38305664 5.10571289 C-1.3740332 6.38704102 -1.36500977 7.66836914 -1.35571289 8.98852539 C-1.34411133 10.26469727 -1.33250977 11.54086914 -1.32055664 12.85571289 C-1.41821289 16.11352539 -1.41821289 16.11352539 -2.41821289 18.11352539 C-2.56996838 19.70614605 -2.66721614 21.30417395 -2.73461914 22.90258789 C-2.77651367 23.84360352 -2.8184082 24.78461914 -2.86157227 25.75415039 C-2.90088867 26.73899414 -2.94020508 27.72383789 -2.98071289 28.73852539 C-3.02389648 29.73110352 -3.06708008 30.72368164 -3.11157227 31.74633789 C-3.21782358 34.20192377 -3.31986253 36.65761242 -3.41821289 39.11352539 C-3.74821289 39.11352539 -4.07821289 39.11352539 -4.41821289 39.11352539 C-4.44286139 33.72005551 -4.4610482 28.32661814 -4.47314453 22.93310547 C-4.47818521 21.09683664 -4.48501766 19.26057185 -4.49365234 17.42431641 C-4.50572961 14.79076138 -4.5114437 12.15725923 -4.51586914 9.52368164 C-4.52103043 8.69763931 -4.52619171 7.87159698 -4.5315094 7.02052307 C-4.53170494 5.05116172 -4.48025441 3.08190926 -4.41821289 1.11352539 C-3.41821289 0.11352539 -3.41821289 0.11352539 0 0 Z " fill="#F2621F" transform="translate(2458.418212890625,51.886474609375)"/>
<path d="M0 0 C-4.89479906 2.53179262 -8.88429386 3.15921098 -14.34375 3.16796875 C-15.06808228 3.17129715 -15.79241455 3.17462555 -16.53869629 3.17805481 C-18.07527025 3.18311774 -19.61185521 3.18546333 -21.1484375 3.18530273 C-23.46373524 3.18746611 -25.77853802 3.20556329 -28.09375 3.22460938 C-36.27410516 3.25470366 -43.99549919 2.9258375 -52 1 C-52 0.67 -52 0.34 -52 0 C-15.58443964 -1.62519296 -15.58443964 -1.62519296 0 0 Z " fill="#F34A04" transform="translate(3265,271)"/>
<path d="M0 0 C2.76166783 2.76166783 2.96248007 4.79404702 3.08229065 8.6449585 C3.06230515 9.64867493 3.04231964 10.65239136 3.02172852 11.68652344 C3.00163223 12.82740417 2.98153595 13.96828491 2.96083069 15.14373779 C2.93379562 16.36989807 2.90676056 17.59605835 2.87890625 18.859375 C2.85529526 20.11888977 2.83168427 21.37840454 2.80735779 22.67608643 C2.74377606 26.01672274 2.67556319 29.35719911 2.60510254 32.69769287 C2.53427725 36.10958468 2.46954538 39.52159154 2.40429688 42.93359375 C2.27514476 49.62251602 2.13988533 56.31129405 2 63 C1.01 63.495 1.01 63.495 0 64 C0 42.88 0 21.76 0 0 Z " fill="#F34502" transform="translate(2455,141)"/>
<path d="M0 0 C1.25619141 -0.00128906 2.51238281 -0.00257812 3.80664062 -0.00390625 C5.7644043 0.00189453 5.7644043 0.00189453 7.76171875 0.0078125 C9.05529297 0.00394531 10.34886719 0.00007813 11.68164062 -0.00390625 C18.0294441 0.00258767 24.17673365 0.13112286 30.44921875 1.1328125 C30.94421875 3.1128125 30.94421875 3.1128125 31.44921875 5.1328125 C30.22912109 4.91625 30.22912109 4.91625 28.984375 4.6953125 C13.88560906 2.24961813 -0.47394629 2.86012675 -15.55078125 5.1328125 C-10.97313016 -0.12300913 -6.70879422 0.00665037 0 0 Z " fill="#EE4303" transform="translate(3231.55078125,123.8671875)"/>
<path d="M0 0 C13.86 0 27.72 0 42 0 C42 0.99 42 1.98 42 3 C21.705 2.505 21.705 2.505 1 2 C1 8.27 1 14.54 1 21 C0.67 21 0.34 21 0 21 C0 14.07 0 7.14 0 0 Z " fill="#E74B12" transform="translate(2412,100)"/>
<path d="M0 0 C17.49 0.33 34.98 0.66 53 1 C53 1.33 53 1.66 53 2 C40.5384023 3.98980856 27.71467867 4.34264603 15.125 3.6875 C14.40723389 3.65285645 13.68946777 3.61821289 12.94995117 3.58251953 C8.35354523 3.28611731 4.3562442 2.3933157 0 1 C0 0.67 0 0.34 0 0 Z " fill="#E66B2F" transform="translate(3067,237)"/>
<path d="M0 0 C0.99 0.33 1.98 0.66 3 1 C3 1.66 3 2.32 3 3 C1.00283825 3.65455759 -0.99790387 4.2981943 -3 4.9375 C-4.11375 5.29714844 -5.2275 5.65679687 -6.375 6.02734375 C-13.95671159 8.06166076 -21.44516841 8.20826293 -29.25 8.25 C-30.2296875 8.270625 -31.209375 8.29125 -32.21875 8.3125 C-33.16234375 8.31765625 -34.1059375 8.3228125 -35.078125 8.328125 C-36.35284668 8.34214355 -36.35284668 8.34214355 -37.65332031 8.35644531 C-40.48523565 7.92629588 -41.86831933 6.86352927 -44 5 C-43.39752441 5.00523682 -42.79504883 5.01047363 -42.17431641 5.01586914 C-29.07351977 5.1140816 -16.0705864 4.9137988 -3 4 C-3 3.34 -3 2.68 -3 2 C-2.01 1.34 -1.02 0.68 0 0 Z " fill="#EC4C0A" transform="translate(2710,266)"/>
<path d="M0 0 C3.58218034 0.68387079 7.09602014 1.51958475 10.625 2.4375 C19.45463993 4.65030707 28.03990773 6.06308084 37.1171875 6.71484375 C41.19155315 7.11786366 45.03108742 8.00777185 49 9 C49 9.33 49 9.66 49 10 C42.3625083 10.22887902 36.18210618 9.52064159 29.625 8.49609375 C26.15333754 8.02098477 22.7480481 7.79412733 19.25 7.625 C12.0572748 7.13258849 4.97050333 5.54036995 0 0 Z " fill="#ED5522" transform="translate(3214,162)"/>
<path d="M0 0 C0.9583374 0.00523682 1.9166748 0.01047363 2.90405273 0.01586914 C4.45576172 0.02070312 4.45576172 0.02070312 6.03881836 0.02563477 C7.12743164 0.03401367 8.21604492 0.04239258 9.33764648 0.05102539 C10.97636719 0.05779297 10.97636719 0.05779297 12.64819336 0.06469727 C15.35723144 0.07652713 18.06616248 0.09300996 20.77514648 0.11352539 C20.77514648 1.10352539 20.77514648 2.09352539 20.77514648 3.11352539 C19.87759644 3.15110962 19.87759644 3.15110962 18.96191406 3.18945312 C7.88372845 3.65862434 -3.17788428 4.1338885 -14.22485352 5.11352539 C-13.89485352 4.45352539 -13.56485352 3.79352539 -13.22485352 3.11352539 C-10.97485352 2.51586914 -10.97485352 2.51586914 -8.22485352 2.05102539 C-5.24019933 1.53803795 -2.78315752 0.14201341 0 0 Z " fill="#F14301" transform="translate(2862.224853515625,124.886474609375)"/>
<path d="M0 0 C3.91309271 3.91309271 3.65319567 5.62453281 4 11 C3 12 3 12 -0.14282227 12.11352539 C-1.53402697 12.11336633 -2.92523761 12.10767506 -4.31640625 12.09765625 C-5.04746078 12.0962413 -5.77851532 12.09482635 -6.53172302 12.09336853 C-8.87535632 12.08775408 -11.21889539 12.07519922 -13.5625 12.0625 C-15.14778508 12.05748686 -16.73307166 12.05292363 -18.31835938 12.04882812 C-22.2122761 12.03777997 -26.10612205 12.02050572 -30 12 C-30 11.34 -30 10.68 -30 10 C-29.410979 10.00523682 -28.82195801 10.01047363 -28.21508789 10.01586914 C-25.49756983 10.03689803 -22.78006899 10.04974146 -20.0625 10.0625 C-19.13630859 10.07087891 -18.21011719 10.07925781 -17.25585938 10.08789062 C-11.41699697 10.10837786 -5.79086947 9.75429787 0 9 C0 6.03 0 3.06 0 0 Z " fill="#E3460A" transform="translate(3303,133)"/>
<path d="M0 0 C0.33 0 0.66 0 1 0 C1.21727572 3.93189142 1.41408356 7.8642232 1.59204102 11.7980957 C1.68660785 13.79367369 1.79732981 15.78846468 1.90820312 17.78320312 C1.96298828 19.03681641 2.01777344 20.29042969 2.07421875 21.58203125 C2.13182373 22.73936768 2.18942871 23.8967041 2.2487793 25.08911133 C2 28 2 28 0.49536133 29.90112305 C0.00189209 30.26375244 -0.49157715 30.62638184 -1 31 C-2 30 -2 30 -2.03759766 27.34790039 C-1.99683105 26.19281982 -1.95606445 25.03773926 -1.9140625 23.84765625 C-1.87023438 22.59662109 -1.82640625 21.34558594 -1.78125 20.05664062 C-1.7296875 18.73857422 -1.678125 17.42050781 -1.625 16.0625 C-1.58117188 14.74830078 -1.53734375 13.43410156 -1.4921875 12.08007812 C-1.12815714 2.25631427 -1.12815714 2.25631427 0 0 Z " fill="#F44602" transform="translate(2456,68)"/>
<path d="M0 0 C0 0.33 0 0.66 0 1 C-14.19 1 -28.38 1 -43 1 C-43 0.67 -43 0.34 -43 0 C-38.48447195 -0.33872221 -33.96812963 -0.65939968 -29.45019531 -0.96435547 C-27.91762998 -1.07023829 -26.38538005 -1.18080537 -24.85351562 -1.29638672 C-16.34051707 -1.93541729 -8.31054602 -2.45451606 0 0 Z " fill="#ED580D" transform="translate(3017,72)"/>
<path d="M0 0 C2.83392926 -0.08174796 5.66544819 -0.14084985 8.5 -0.1875 C9.29148437 -0.21263672 10.08296875 -0.23777344 10.8984375 -0.26367188 C16.62130318 -0.33403498 20.75203857 0.70702602 26 3 C26 3.66 26 4.32 26 5 C20.15015389 4.48780149 14.32250084 3.82482743 8.5 3.0625 C7.3140625 2.90910156 6.128125 2.75570312 4.90625 2.59765625 C2 2 2 2 0 0 Z " fill="#ED490A" transform="translate(3216,194)"/>
<path d="M0 0 C0.33 0 0.66 0 1 0 C1.28829596 4.24828576 1.52340504 8.49801231 1.75 12.75 C1.83121094 13.93722656 1.91242187 15.12445313 1.99609375 16.34765625 C2.4079026 24.72110281 1.22084716 31.25928998 -2 39 C-2.33 39 -2.66 39 -3 39 C-2.85691406 37.83597656 -2.71382812 36.67195313 -2.56640625 35.47265625 C-1.78940866 28.47967797 -1.38790246 21.45730854 -0.9375 14.4375 C-0.84588995 13.03319092 -0.75409451 11.62889393 -0.66210938 10.22460938 C-0.43958809 6.81652024 -0.21893563 3.40832103 0 0 Z " fill="#F2550E" transform="translate(2939,200)"/>
<path d="M0 0 C0.33 0.66 0.66 1.32 1 2 C-6.73816475 11.8887217 -6.73816475 11.8887217 -9.9375 14.9375 C-12.21894832 16.91148898 -12.21894832 16.91148898 -13 20 C-16.21284338 21.88579937 -18.24633583 23 -22 23 C-21.40461426 22.40985107 -20.80922852 21.81970215 -20.19580078 21.21166992 C-17.98349352 19.01642693 -15.77346296 16.8189241 -13.56494141 14.61987305 C-12.14008931 13.20251 -10.71263587 11.78776361 -9.28515625 10.37304688 C-8.38925781 9.48037109 -7.49335938 8.58769531 -6.5703125 7.66796875 C-5.74289551 6.84578857 -4.91547852 6.0236084 -4.06298828 5.17651367 C-1.86385262 2.97972598 -1.86385262 2.97972598 0 0 Z " fill="#F45716" transform="translate(506,154)"/>
<path d="M0 0 C7.55760681 3.4232486 13.00585422 10.34309596 16 18 C15.67 18.66 15.34 19.32 15 20 C14.01 19.67 13.02 19.34 12 19 C11.24360136 17.28988133 10.49387644 15.57577439 9.80859375 13.8359375 C8.10673193 9.97180679 5.23186411 7.22659447 2.25 4.3125 C0 2 0 2 0 0 Z " fill="#EA480D" transform="translate(2728,111)"/>
<path d="M0 0 C0 0.99 0 1.98 0 3 C-10.56 2.67 -21.12 2.34 -32 2 C-32 1.67 -32 1.34 -32 1 C-21.32089373 0.36850058 -10.7016389 -0.17291697 0 0 Z " fill="#EE4500" transform="translate(2454,100)"/>
<path d="M0 0 C0.66 0 1.32 0 2 0 C2.93089636 4.74384783 3.18305754 9.36742608 3.1875 14.1875 C3.19974609 14.89841797 3.21199219 15.60933594 3.22460938 16.34179688 C3.23525454 20.11373295 3.14423638 21.78364543 1 25 C0.67 16.75 0.34 8.5 0 0 Z " fill="#EE440E" transform="translate(3308,208)"/>
<path d="M0 0 C0.66 0.33 1.32 0.66 2 1 C1.39671875 1.59167969 0.7934375 2.18335937 0.171875 2.79296875 C-8.07524412 10.14944156 -8.07524412 10.14944156 -12 20 C-13.65 19.67 -15.3 19.34 -17 19 C-12.13998705 11.84327206 -6.18597308 5.98784583 0 0 Z " fill="#F86723" transform="translate(386,69)"/>
<path d="M0 0 C-6.03407363 3.48119632 -12.62418172 3.13248456 -19.375 3.0625 C-20.20644531 3.05798828 -21.03789062 3.05347656 -21.89453125 3.04882812 C-23.92971897 3.03713164 -25.96486923 3.01919935 -28 3 C-28 2.67 -28 2.34 -28 2 C-24.46042297 1.46425839 -20.91814195 0.94908859 -17.375 0.4375 C-16.37597656 0.28603516 -15.37695312 0.13457031 -14.34765625 -0.02148438 C-9.32273154 -0.73695379 -4.99996637 -1.28838724 0 0 Z " fill="#E93901" transform="translate(2900,270)"/>
<path d="M0 0 C0.66 0.99 1.32 1.98 2 3 C1.01 3.33 0.02 3.66 -1 4 C-1.28875 4.928125 -1.5775 5.85625 -1.875 6.8125 C-3.23727652 10.67228346 -4.49813903 11.93071852 -8 14 C-11.3125 14.25 -11.3125 14.25 -14 14 C-12.948125 13.1646875 -12.948125 13.1646875 -11.875 12.3125 C-10.92625 11.549375 -9.9775 10.78625 -9 10 C-7.96875 9.195625 -6.9375 8.39125 -5.875 7.5625 C-3.18575679 5.16556584 -1.63322032 3.17570619 0 0 Z " fill="#F45317" transform="translate(2710,227)"/>
<path d="M0 0 C0.928125 0.165 1.85625 0.33 2.8125 0.5 C5.95621353 1.07748388 5.95621353 1.07748388 9 1 C7.35 2.98 5.7 4.96 4 7 C0.83884224 5.63016497 0.0072908 5.0109362 -2 2 C-1.34 2 -0.68 2 0 2 C0 1.34 0 0.68 0 0 Z " fill="#F7570B" transform="translate(429,166)"/>
<path d="M0 0 C0.99 0.33 1.98 0.66 3 1 C3 1.66 3 2.32 3 3 C-5.06524596 6.39589303 -12.38261147 6.30654742 -21 6 C-21 5.67 -21 5.34 -21 5 C-15.06 4.67 -9.12 4.34 -3 4 C-3 3.34 -3 2.68 -3 2 C-2.01 1.34 -1.02 0.68 0 0 Z " fill="#F14503" transform="translate(2710,266)"/>
<path d="M0 0 C0.33 0.99 0.66 1.98 1 3 C2.65 3 4.3 3 6 3 C6.66 4.65 7.32 6.3 8 8 C6.02 8.99 6.02 8.99 4 10 C3.13342884 8.90554162 2.28207276 7.79902219 1.4375 6.6875 C0.96183594 6.07261719 0.48617187 5.45773438 -0.00390625 4.82421875 C-0.33261719 4.22222656 -0.66132813 3.62023437 -1 3 C-0.67 2.01 -0.34 1.02 0 0 Z " fill="#F95E11" transform="translate(2813,248)"/>
<path d="M0 0 C0.66 0.66 1.32 1.32 2 2 C-1.63 5.96 -5.26 9.92 -9 14 C-9.66 13.34 -10.32 12.68 -11 12 C-7.37 8.04 -3.74 4.08 0 0 Z " fill="#F96519" transform="translate(540,230)"/>
<path d="M0 0 C3.76416092 3.34592082 6.92790265 7.39218533 9 12 C8.67 12.99 8.34 13.98 8 15 C7.34 15 6.68 15 6 15 C5.87625 14.195625 5.7525 13.39125 5.625 12.5625 C5.41875 11.716875 5.2125 10.87125 5 10 C4.34 9.67 3.68 9.34 3 9 C3 8.34 3 7.68 3 7 C2.01 6.67 1.02 6.34 0 6 C-0.75 4.0625 -0.75 4.0625 -1 2 C-0.67 1.34 -0.34 0.68 0 0 Z " fill="#F7671D" transform="translate(546,90)"/>
<path d="M0 0 C4.22274294 1.40758098 4.96431683 3.83207287 6.9921875 7.6328125 C8.23075976 10.54201711 8.40077351 12.87396663 8 16 C6 15 6 15 5.25390625 13.328125 C5.02574219 12.64234375 4.79757813 11.9565625 4.5625 11.25 C3.37964333 7.88247947 1.87930632 5.04268642 0 2 C0 1.34 0 0.68 0 0 Z " fill="#E95518" transform="translate(3300,191)"/>
<path d="M0 0 C1.98 0 3.96 0 6 0 C6 0.66 6 1.32 6 2 C6.5775 1.814375 7.155 1.62875 7.75 1.4375 C10.20692525 0.95976454 11.64397534 1.24270636 14 2 C14 2.66 14 3.32 14 4 C14.99 4.33 15.98 4.66 17 5 C10.54487966 5.56131481 5.84560277 3.63463787 0 1 C0 0.67 0 0.34 0 0 Z " fill="#F25C1B" transform="translate(3044,265)"/>
<path d="M0 0 C-1.55666955 0.9884096 -3.12062426 1.96535082 -4.6875 2.9375 C-5.55761719 3.48277344 -6.42773438 4.02804687 -7.32421875 4.58984375 C-9.94624689 5.97167172 -12.08310075 6.58480173 -15 7 C-15.33 6.01 -15.66 5.02 -16 4 C-13.69 4 -11.38 4 -9 4 C-9 3.34 -9 2.68 -9 2 C-3.375 -1.125 -3.375 -1.125 0 0 Z " fill="#EF5212" transform="translate(2917,263)"/>
<path d="M0 0 C3.46548041 3.46548041 2.97850701 8.79639238 3.0625 13.5 C3.041875 14.325 3.02125 15.15 3 16 C0.9346915 12.90203725 0.4516727 11.04666313 -0.1875 7.4375 C-0.36667969 6.46683594 -0.54585937 5.49617187 -0.73046875 4.49609375 C-1 2 -1 2 0 0 Z " fill="#F14D0B" transform="translate(2803,222)"/>
<path d="M0 0 C3.96 0 7.92 0 12 0 C12.33 1.32 12.66 2.64 13 4 C8.38 3.34 3.76 2.68 -1 2 C-0.67 1.34 -0.34 0.68 0 0 Z " fill="#F24509" transform="translate(3250,125)"/>
<path d="M0 0 C-1.2843241 2.86503068 -2.41598787 5.15427705 -5 7 C-8.1875 7.1875 -8.1875 7.1875 -11 7 C-4.48275862 0 -4.48275862 0 0 0 Z " fill="#F85D17" transform="translate(408,55)"/>
<path d="M0 0 C0.66 1.32 1.32 2.64 2 4 C1.67 4.33 1.34 4.66 1 5 C0.84379445 6.41327947 0.74943827 7.8335459 0.68359375 9.25390625 C0.64169922 10.10791016 0.59980469 10.96191406 0.55664062 11.84179688 C0.51732422 12.73962891 0.47800781 13.63746094 0.4375 14.5625 C0.39431641 15.46419922 0.35113281 16.36589844 0.30664062 17.29492188 C0.20021858 19.52978485 0.09820012 21.76476308 0 24 C-0.33 24 -0.66 24 -1 24 C-1.02901394 20.5625177 -1.04680335 17.12506688 -1.0625 13.6875 C-1.07087891 12.71103516 -1.07925781 11.73457031 -1.08789062 10.72851562 C-1.09111328 9.79072266 -1.09433594 8.85292969 -1.09765625 7.88671875 C-1.10551147 6.59060669 -1.10551147 6.59060669 -1.11352539 5.26831055 C-1 3 -1 3 0 0 Z " fill="#F74203" transform="translate(3174,132)"/>
<path d="M0 0 C1.93884889 0.28256092 3.87605961 0.5763793 5.8125 0.875 C6.89144531 1.03742187 7.97039062 1.19984375 9.08203125 1.3671875 C12 2 12 2 15 4 C5.98468271 4.63019694 5.98468271 4.63019694 1.875 2 C1.25625 1.34 0.6375 0.68 0 0 Z " fill="#F65E18" transform="translate(474,44)"/>
<path d="M0 0 C0.66 0 1.32 0 2 0 C1.40075776 4.19469571 0.42500059 8.00999834 -1 12 C-1.66 11.34 -2.32 10.68 -3 10 C-3 9.01 -3 8.02 -3 7 C-2.34 7 -1.68 7 -1 7 C-1.020625 6.030625 -1.04125 5.06125 -1.0625 4.0625 C-1 1 -1 1 0 0 Z " fill="#F44D0D" transform="translate(3307,234)"/>
<path d="M0 0 C0.33 0.66 0.66 1.32 1 2 C1.66 2 2.32 2 3 2 C3 3.32 3 4.64 3 6 C1.68 6.33 0.36 6.66 -1 7 C-1 6.34 -1 5.68 -1 5 C-1.66 5 -2.32 5 -3 5 C-1.125 1.125 -1.125 1.125 0 0 Z " fill="#F5651A" transform="translate(2815,116)"/>
<path d="M0 0 C0.66 0.33 1.32 0.66 2 1 C0.92807816 2.3218362 -0.15802695 3.63217927 -1.25 4.9375 C-1.85328125 5.66839844 -2.4565625 6.39929688 -3.078125 7.15234375 C-5.10741134 9.10326334 -6.254407 9.61731779 -9 10 C-8.06409496 8.8944811 -7.12620142 7.79064547 -6.1875 6.6875 C-5.66542969 6.07261719 -5.14335937 5.45773438 -4.60546875 4.82421875 C-3.12827531 3.14575321 -1.59960869 1.56117966 0 0 Z " fill="#F6652B" transform="translate(2630,109)"/>
<path d="M0 0 C4.29 0.66 8.58 1.32 13 2 C12.67 2.66 12.34 3.32 12 4 C9.69 4 7.38 4 5 4 C5 3.34 5 2.68 5 2 C3.35 2 1.7 2 0 2 C0 1.34 0 0.68 0 0 Z " fill="#F75D14" transform="translate(3256,97)"/>
<path d="M0 0 C0.99 0.33 1.98 0.66 3 1 C1.02 3.31 -0.96 5.62 -3 8 C-3.66 7.67 -4.32 7.34 -5 7 C-4.1875 5.0625 -4.1875 5.0625 -3 3 C-2.01 2.67 -1.02 2.34 0 2 C0 1.34 0 0.68 0 0 Z " fill="#F75A09" transform="translate(444,157)"/>
<path d="M0 0 C3.73997229 5.60995843 3.11406407 11.47300069 3 18 C2.67 18 2.34 18 2 18 C0.3722167 11.85221129 -0.20190089 6.35987804 0 0 Z " fill="#F36626" transform="translate(2746,137)"/>
<path d="M0 0 C0.66 0 1.32 0 2 0 C1.690625 0.969375 1.38125 1.93875 1.0625 2.9375 C-0.17967097 7.23664491 -0.61684853 11.55342634 -1 16 C-1.33 16 -1.66 16 -2 16 C-2.05402274 13.89611431 -2.09280256 11.79183286 -2.125 9.6875 C-2.14820312 8.51574219 -2.17140625 7.34398437 -2.1953125 6.13671875 C-2 3 -2 3 0 0 Z " fill="#ED4D0E" transform="translate(2838,143)"/>
<path d="M0 0 C0.66 0 1.32 0 2 0 C1.34 2.97 0.68 5.94 0 9 C-0.66 9 -1.32 9 -2 9 C-2.33 9.66 -2.66 10.32 -3 11 C-2.53199289 6.94393835 -2.12046792 3.53411321 0 0 Z " fill="#F54803" transform="translate(3207,136)"/>
<path d="M0 0 C1.65 0 3.3 0 5 0 C5.33 0.66 5.66 1.32 6 2 C6.99 2.66 7.98 3.32 9 4 C7.375 4.6875 7.375 4.6875 5 5 C1.75 3.5625 1.75 3.5625 -1 2 C-0.67 1.34 -0.34 0.68 0 0 Z " fill="#F34E15" transform="translate(2695,128)"/>
<path d="M0 0 C1.98 0 3.96 0 6 0 C5.01 0.33 4.02 0.66 3 1 C2.71125 1.639375 2.4225 2.27875 2.125 2.9375 C0.60901352 5.71680854 -1.05867273 6.07115981 -4 7 C-4 5 -4 5 -2.5625 3.5 C-2.046875 3.005 -1.53125 2.51 -1 2 C-0.67 1.34 -0.34 0.68 0 0 Z " fill="#FA6215" transform="translate(3271,101)"/>
<path d="M0 0 C0.99 0.33 1.98 0.66 3 1 C-0.96 4.465 -0.96 4.465 -5 8 C-5.33 7.01 -5.66 6.02 -6 5 C-5.01 5 -4.02 5 -3 5 C-2.87625 4.360625 -2.7525 3.72125 -2.625 3.0625 C-2.41875 2.381875 -2.2125 1.70125 -2 1 C-1.34 0.67 -0.68 0.34 0 0 Z " fill="#F44E0F" transform="translate(2733,253)"/>
<path d="M0 0 C-4.83646298 3.22430866 -7.26939984 3.09242903 -13 3 C-8.16353702 -0.22430866 -5.73060016 -0.09242903 0 0 Z " fill="#F44D0C" transform="translate(3267,243)"/>
<path d="M0 0 C0.99 0.33 1.98 0.66 3 1 C1.35 2.98 -0.3 4.96 -2 7 C-2.66 6.67 -3.32 6.34 -4 6 C-4 5.01 -4 4.02 -4 3 C-2.1875 1.25 -2.1875 1.25 0 0 Z " fill="#F55B0C" transform="translate(453,148)"/>
<path d="M0 0 C3.51121797 0.2926015 4.80482666 0.8099628 7.375 3.3125 C9 6 9 6 8.6015625 8.16796875 C8.40304688 8.77253906 8.20453125 9.37710938 8 10 C7.67386719 9.52949219 7.34773438 9.05898437 7.01171875 8.57421875 C6.35623047 7.64029297 6.35623047 7.64029297 5.6875 6.6875 C5.25824219 6.07261719 4.82898437 5.45773438 4.38671875 4.82421875 C3.04070466 3.05354669 1.60807197 1.53261991 0 0 Z " fill="#ED4F14" transform="translate(2702,133)"/>
<path d="M0 0 C0.66 0.33 1.32 0.66 2 1 C-0.97 3.97 -3.94 6.94 -7 10 C-7 6.04435836 -5.59478606 4.89133304 -3 2 C-2.01 1.34 -1.02 0.68 0 0 Z " fill="#F9DFD2" transform="translate(2849,132)"/>
<path d="M0 0 C4.08378283 0.74250597 8.01939223 1.82923301 12 3 C11.67 3.66 11.34 4.32 11 5 C4.6 4.50769231 4.6 4.50769231 1.5625 1.9375 C1.046875 1.298125 0.53125 0.65875 0 0 Z " fill="#EB4406" transform="translate(3214,162)"/>
<path d="M0 0 C0.66 0.33 1.32 0.66 2 1 C-0.97 3.97 -3.94 6.94 -7 10 C-7 7 -7 7 -4.625 4.4375 C-3.75875 3.633125 -2.8925 2.82875 -2 2 C-1.34 1.34 -0.68 0.68 0 0 Z " fill="#FAE0D5" transform="translate(2657,132)"/>
<path d="M0 0 C1.14926266 0.95421808 2.29430541 1.91352045 3.4375 2.875 C4.07558594 3.40867188 4.71367187 3.94234375 5.37109375 4.4921875 C7 6 7 6 8 8 C5.2980567 7.63487253 3.41609148 7.30130763 1.1875 5.6875 C0 4 0 4 0 0 Z " fill="#F05B1E" transform="translate(2494,229)"/>
<path d="M0 0 C4.44870215 -0.39253254 7.14243493 0.84694043 11 3 C7.19010598 4.46534385 4.6758821 3.55203911 1 2 C0.67 1.34 0.34 0.68 0 0 Z " fill="#EC4207" transform="translate(3197,188)"/>
<path d="M0 0 C-1.49739583 1.23697917 -2.99479167 2.47395833 -4.4921875 3.7109375 C-5.71051161 4.75250992 -6.86660097 5.86660097 -8 7 C-8 3.87099787 -7.57548683 2.62581138 -6 0 C-3.50907189 -1.24546405 -2.58919267 -0.7767578 0 0 Z " fill="#F55416" transform="translate(3217,130)"/>
<path d="M0 0 C0 3 0 3 -1.4375 4.5 C-1.953125 4.995 -2.46875 5.49 -3 6 C-3.33 6.99 -3.66 7.98 -4 9 C-5.32 8.67 -6.64 8.34 -8 8 C-5.36 5.36 -2.72 2.72 0 0 Z " fill="#F2682F" transform="translate(478,183)"/>
<path d="M0 0 C5.01113235 1.4317521 6.94469549 3.98445693 10 8 C7.50638429 6.79618552 5.31856917 5.54571278 3 4 C3 3.34 3 2.68 3 2 C2.01 2 1.02 2 0 2 C0 1.34 0 0.68 0 0 Z " fill="#ED5212" transform="translate(3289,181)"/>
<path d="M0 0 C5.75 1.75 5.75 1.75 8 4 C6.68 4.33 5.36 4.66 4 5 C4 4.34 4 3.68 4 3 C2.35 3 0.7 3 -1 3 C-0.67 2.01 -0.34 1.02 0 0 Z " fill="#EC540B" transform="translate(3281,177)"/>
<path d="M0 0 C0.33 0.66 0.66 1.32 1 2 C-1.84936103 5.00765886 -4.23511958 7.27845212 -8 9 C-7.04270084 7.87411986 -6.08412105 6.7493285 -5.125 5.625 C-4.59132813 4.99851563 -4.05765625 4.37203125 -3.5078125 3.7265625 C-2.38567993 2.44163349 -1.20628025 1.20628025 0 0 Z " fill="#F06935" transform="translate(519,141)"/>
<path d="M0 0 C-2.41805039 2.41805039 -4.92917103 3.52856112 -8 5 C-8.99 5.495 -8.99 5.495 -10 6 C-9.75 4.125 -9.75 4.125 -9 2 C-6.04454879 -0.11103658 -3.56144099 -0.19785783 0 0 Z " fill="#F15012" transform="translate(2664,129)"/>
<path d="M0 0 C0.99 0.33 1.98 0.66 3 1 C4.1875 4.0625 4.1875 4.0625 5 7 C3.68 6.67 2.36 6.34 1 6 C0.67 4.02 0.34 2.04 0 0 Z " fill="#ED6228" transform="translate(2739,124)"/>
<path d="M0 0 C2.64 0.33 5.28 0.66 8 1 C8.33 1.99 8.66 2.98 9 4 C6.03 3.01 3.06 2.02 0 1 C0 0.67 0 0.34 0 0 Z " fill="#E76028" transform="translate(2478,265)"/>
<path d="M0 0 C-2.93127462 1.95418308 -4.55834679 2.64700993 -8 3 C-8.66 2.34 -9.32 1.68 -10 1 C-6.21812119 -0.83691257 -4.05431692 -1.15837626 0 0 Z " fill="#F5560A" transform="translate(491,266)"/>
<path d="M0 0 C3.3 0.33 6.6 0.66 10 1 C8 3 8 3 5.375 3.125 C4.59125 3.08375 3.8075 3.0425 3 3 C3 2.34 3 1.68 3 1 C2.01 0.67 1.02 0.34 0 0 Z " fill="#F74600" transform="translate(3234,169)"/>
<path d="M0 0 C0.66 0.33 1.32 0.66 2 1 C1.34 2.32 0.68 3.64 0 5 C-0.99 5 -1.98 5 -3 5 C-3 4.01 -3 3.02 -3 2 C-2.01 1.34 -1.02 0.68 0 0 Z " fill="#F86113" transform="translate(466,135)"/>
<path d="M0 0 C1 3 1 3 -0.3125 5.6875 C-0.869375 6.450625 -1.42625 7.21375 -2 8 C-2.66 8 -3.32 8 -4 8 C-2.87548273 5.0280615 -1.77706209 2.66559313 0 0 Z " fill="#F15C25" transform="translate(2811,121)"/>
<path d="M0 0 C-2.91708924 1.98362069 -4.12380904 1.9876191 -7.75 1.625 C-8.8225 1.41875 -9.895 1.2125 -11 1 C-11 0.67 -11 0.34 -11 0 C-7.01803543 -1.05404945 -4.01804691 -0.84098656 0 0 Z " fill="#EA4905" transform="translate(2900,270)"/>
<path d="M0 0 C1.65 0.99 3.3 1.98 5 3 C4.67 4.65 4.34 6.3 4 8 C2.22293791 5.33440687 1.12451727 2.9719385 0 0 Z " fill="#F76921" transform="translate(2458,241)"/>
<path d="M0 0 C0.66 0.99 1.32 1.98 2 3 C1.01 3.33 0.02 3.66 -1 4 C-2.20882096 6.00016466 -2.20882096 6.00016466 -3 8 C-3.99 8 -4.98 8 -6 8 C-4.02 5.36 -2.04 2.72 0 0 Z " fill="#F46328" transform="translate(2710,227)"/>
<path d="M0 0 C0.66 0.33 1.32 0.66 2 1 C2 2.98 2 4.96 2 7 C1.01 6.67 0.02 6.34 -1 6 C-0.67 4.02 -0.34 2.04 0 0 Z " fill="#F7591A" transform="translate(2644,216)"/>
<path d="M0 0 C0.66 0 1.32 0 2 0 C3.35439668 2.70879335 3.06501451 5.00933268 3 8 C2.34 7.67 1.68 7.34 1 7 C0.59270772 4.67843403 0.25561323 2.3431213 0 0 Z " fill="#ED490E" transform="translate(3305,199)"/>
<path d="M0 0 C5.53846154 0.61538462 5.53846154 0.61538462 7.875 2.5625 C8.431875 3.2740625 8.431875 3.2740625 9 4 C8.01 4.495 8.01 4.495 7 5 C4.5249829 3.88568235 2.32116581 2.41849022 0 1 C0 0.67 0 0.34 0 0 Z " fill="#E7622C" transform="translate(3189,185)"/>
<path d="M0 0 C2.64 0.99 5.28 1.98 8 3 C7.01 4.485 7.01 4.485 6 6 C5.34 5.34 4.68 4.68 4 4 C3.01 4 2.02 4 1 4 C0.67 2.68 0.34 1.36 0 0 Z " fill="#F76117" transform="translate(491,48)"/>
</svg>
